<svg xmlns="http://www.w3.org/2000/svg" xmlns:xlink="http://www.w3.org/1999/xlink" width="50px" height="50px" style="-ms-transform: rotate(360deg); -webkit-transform: rotate(360deg); transform: rotate(360deg);" preserveAspectRatio="xMidYMid meet" viewBox="0 0 24 24"><path d="M 8.183712244033813 5.772815108299255 L 13.261859893798828 5.830832362174988 C 16.349790573120117 5.6166898012161255 19.11029863357544 6.809170961380005 18.79044771194458 9.727093935012817 C 18.84234094619751 12.238649368286133 17.501269340515137 13.168803691864014 16.041439533233643 13.909350872039795 C 17.05222463607788 14.459843158721924 18.13755226135254 14.877000331878662 18.087382793426514 16.947721481323242 C 18.124578952789307 20.32815456390381 15.359760761260986 22.683945178985596 12.183129787445068 22.688509941101074 L 5.534352779388428 22.68775749206543 L 8.183712244033813 5.772815108299255 M 11.779027462005615 9.599074602127075 L 12.19442081451416 9.36514163017273 L 11.787729978561401 12.351937294006348 L 12.69142770767212 12.192714214324951 C 13.378469467163086 12.348262310028076 14.563011646270752 11.594805479049683 14.246621131896973 10.239317178726196 C 13.855642318725586 9.501258373260498 12.949011325836182 9.406765222549438 11.779027462005615 9.599074602127075 M 11.037359476089478 15.70971393585205 L 11.107649087905884 15.388233661651611 L 10.568674564361572 19.0054292678833 L 11.469032049179077 18.993125438690186 C 12.809995651245117 19.11575174331665 13.379655361175537 18.306334018707275 13.495237827301025 16.822292804718018 C 13.318742752075195 15.73883056640625 11.506525754928589 15.371508121490479 11.037359476089478 15.70971393585205 " fill="none" stroke="black" stroke-width="0.3"></path></svg>
