<svg xmlns="http://www.w3.org/2000/svg" xmlns:xlink="http://www.w3.org/1999/xlink" width="50px" height="50px" style="-ms-transform: rotate(360deg); -webkit-transform: rotate(360deg); transform: rotate(360deg);" preserveAspectRatio="xMidYMid meet" viewBox="0 0 24 24"><path d="M 14.55525541305542 5.604100227355957 C 15.258666515350342 5.7037882804870605 18.13227653503418 5.8895745277404785 18.877231121063232 7.214288949966431 L 18.0494441986084 10.349618911743164 C 16.09935235977173 10.156150102615356 16.38036346435547 9.619780540466309 14.879377841949463 9.54236626625061 C 12.088757514953613 9.486702919006348 10.870704174041748 12.301833629608154 10.632508993148804 15.237071514129639 C 10.316026210784912 17.062020778656006 10.929011821746826 19.033822059631348 12.639600276947021 18.574959754943848 C 11.66149377822876 18.67313861846924 13.192342758178711 19.107094287872314 13.43779706954956 18.323886394500732 L 13.878045558929443 16.29151725769043 L 12.213586807250977 16.146620750427246 L 12.567375183105469 12.895281314849854 L 18.84212636947632 12.784406661987305 L 17.423927307128906 19.34007167816162 C 16.21836519241333 22.358455181121826 16.24381113052368 22.193162441253662 12.415088653564453 23.012967109680176 C 7.663536071777344 22.902249813079834 5.1413819789886475 20.107033252716064 5.8962578773498535 14.400918960571289 C 6.634456157684326 9.37026858329773 9.677313566207886 5.793875813484192 14.55525541305542 5.604100227355957 " fill="none" stroke="black" stroke-width="0.3"></path></svg>
