<svg xmlns="http://www.w3.org/2000/svg" xmlns:xlink="http://www.w3.org/1999/xlink" width="50px" height="50px" style="-ms-transform: rotate(360deg); -webkit-transform: rotate(360deg); transform: rotate(360deg);" preserveAspectRatio="xMidYMid meet" viewBox="0 0 24 24"><path d="M 13.835912704467773 5.395717978477478 C 17.237465858459473 5.495319485664368 19.642667770385742 7.689170837402344 19.440157413482666 12.538998126983643 C 19.160110473632812 16.729494094848633 17.52777099609375 20.245699882507324 16.025333404541016 21.189688682556152 C 14.758881568908691 22.273760318756104 17.571242809295654 22.86266040802002 16.813209056854248 22.683699131011963 L 17.90668487548828 24.76183319091797 C 14.976100444793701 25.053935050964355 13.833881378173828 24.39851188659668 13.80040168762207 23.89274311065674 C 14.197234153747559 24.22398090362549 12.212339401245117 24.693992614746094 12.444857597351074 22.942720413208008 C 7.369269132614136 23.341672897338867 4.812980890274048 20.4206600189209 5.539888858795166 14.698695659637451 C 5.9855732917785645 9.416189432144165 9.212022542953491 5.349494218826294 13.835912704467773 5.395717978477478 M 12.598933696746826 9.79282021522522 C 11.849721193313599 9.822163581848145 10.68860149383545 12.151104927062988 10.236496925354004 14.972024917602539 C 10.028753757476807 17.297248363494873 10.575385808944702 18.991594791412354 11.678745031356812 18.62745237350464 C 12.935367107391357 18.608722686767578 13.145057201385498 18.236125946044922 13.495340824127197 17.278427124023438 C 13.990067481994629 15.971051216125488 14.424961566925049 14.232702255249023 14.71272325515747 13.00609302520752 C 14.976582527160645 10.293551445007324 14.175084114074707 9.4365234375 12.598933696746826 9.79282021522522 " fill="none" stroke="black" stroke-width="0.3"></path></svg>
