<svg xmlns="http://www.w3.org/2000/svg" xmlns:xlink="http://www.w3.org/1999/xlink" width="50px" height="50px" style="-ms-transform: rotate(360deg); -webkit-transform: rotate(360deg); transform: rotate(360deg);" preserveAspectRatio="xMidYMid meet" viewBox="0 0 24 24"><path d="M 8.237061023712158 5.7171735763549805 L 13.545135498046875 5.723340153694153 C 17.001040935516357 5.713979244232178 19.344343185424805 6.916956424713135 18.959939002990723 10.826738834381104 C 18.83474349975586 13.177160739898682 17.084774494171143 14.864034175872803 16.06710147857666 15.334081649780273 L 18.00852870941162 22.676945686340332 L 12.75437307357788 22.691762924194336 L 12.115096092224121 16.94353151321411 L 11.210371971130371 16.351329803466797 L 10.234386205673218 22.686595916748047 L 5.510290861129761 22.68955135345459 C 6.596159934997559 16.54403257369995 7.2835693359375 11.615314722061157 8.237061023712158 5.7171735763549805 M 12.273868560791016 9.685144901275635 L 12.21115493774414 9.587955951690674 L 11.585869073867798 13.978785037994385 C 10.704624652862549 12.282498836517334 12.214874267578125 12.117170333862305 11.492862939834595 13.017040729522705 C 13.19291067123413 13.06140947341919 14.451998233795166 12.409343719482422 14.387829780578613 10.617871284484863 C 14.400833129882812 9.673086404800415 12.46578311920166 9.153969526290894 12.273868560791016 9.685144901275635 " fill="none" stroke="black" stroke-width="0.3"></path></svg>
