<svg xmlns="http://www.w3.org/2000/svg" xmlns:xlink="http://www.w3.org/1999/xlink" width="50px" height="50px" style="-ms-transform: rotate(360deg); -webkit-transform: rotate(360deg); transform: rotate(360deg);" preserveAspectRatio="xMidYMid meet" viewBox="0 0 24 24"><path d="M 14.194036960601807 10.693107604980469 C 14.791892051696777 10.170074701309204 18.681969165802002 11.051773309707642 18.33511734008789 10.579665899276733 L 16.554699897766113 22.688724517822266 L 12.406260967254639 22.686538696289062 L 12.490169048309326 20.844088554382324 C 11.496263980865479 22.812934398651123 11.109809875488281 23.022342681884766 9.295618772506714 22.99733591079712 C 7.11850118637085 22.638553619384766 5.96996533870697 20.944886684417725 6.144011735916138 17.62109613418579 C 6.619161128997803 12.373517990112305 9.713693618774414 9.235698938369751 14.194036960601807 10.693107604980469 M 13.357678413391113 14.606533527374268 C 11.89963960647583 13.58346176147461 10.991018056869507 15.288712978363037 10.777115821838379 17.10841941833496 C 10.735076665878296 18.885751247406006 10.80901551246643 19.258355140686035 11.758656978607178 19.009160041809082 C 12.568315029144287 18.88443660736084 12.480113983154297 17.92869758605957 12.92521619796753 17.005462646484375 L 13.376471042633057 12.524577140808105 C 14.236083984375 13.442620754241943 13.90601634979248 13.905388355255127 13.357678413391113 14.606533527374268 " fill="none" stroke="black" stroke-width="0.3"></path></svg>
