<svg xmlns="http://www.w3.org/2000/svg" xmlns:xlink="http://www.w3.org/1999/xlink" width="50px" height="50px" style="-ms-transform: rotate(360deg); -webkit-transform: rotate(360deg); transform: rotate(360deg);" preserveAspectRatio="xMidYMid meet" viewBox="0 0 24 24"><path d="M 8.730512380599976 5.250300049781799 L 13.3013334274292 5.247905373573303 L 12.310554027557373 11.77690315246582 C 12.140667915344238 11.3013174533844 13.752649784088135 10.462148666381836 14.913259506225586 10.376500368118286 C 16.919405937194824 10.317967414855957 18.54212236404419 12.039261817932129 18.21041965484619 15.131014823913574 C 18.063856601715088 19.576719760894775 16.006153106689453 23.50355815887451 11.331780195236206 22.76688051223755 C 10.264135837554932 22.096630096435547 10.269109010696411 22.98719358444214 6.356180191040039 22.61312198638916 L 6.255722522735596 21.1545467376709 L 8.730512380599976 5.250300049781799 M 12.686066150665283 14.27312707901001 C 11.654934167861938 14.559368133544922 12.021100044250488 15.480616092681885 11.413810729980469 16.830413818359375 L 11.028350114822388 20.509028434753418 C 10.35117244720459 19.032268524169922 10.818927526473999 19.24496555328369 11.013266801834106 18.731572151184082 C 12.74208927154541 19.712940216064453 13.214218139648438 18.06278944015503 13.721766471862793 16.51342535018921 C 13.791718482971191 15.117316246032715 13.895803928375244 14.008327960968018 12.686066150665283 14.27312707901001 " fill="none" stroke="black" stroke-width="0.3"></path></svg>
