<svg xmlns="http://www.w3.org/2000/svg" xmlns:xlink="http://www.w3.org/1999/xlink" width="50px" height="50px" style="-ms-transform: rotate(360deg); -webkit-transform: rotate(360deg); transform: rotate(360deg);" preserveAspectRatio="xMidYMid meet" viewBox="0 0 24 24"><path d="M 19.108280181884766 5.2453776597976685 L 16.19225549697876 22.679646492004395 L 12.345645904541016 22.693387985229492 C 12.42738962173462 21.56352710723877 11.627543449401855 19.462945461273193 12.15234088897705 21.058879852294922 C 12.180938243865967 22.488468647003174 10.448275566101074 23.154903888702393 9.002289533615112 22.918898105621338 C 6.663252353668213 22.370940685272217 5.758221387863159 20.76760482788086 5.964222550392151 17.60335922241211 C 6.333724737167358 13.793911457061768 8.202756643295288 10.0918607711792 12.082676410675049 10.482999801635742 C 13.008640766143799 10.451115846633911 13.63811445236206 11.507555723190308 13.926466941833496 10.323784589767456 L 14.662792682647705 5.254394173622131 L 19.108280181884766 5.2453776597976685 M 12.430184841156006 14.135865211486816 C 11.699084043502808 14.00681447982788 10.694119691848755 15.306936264038086 10.417584657669067 17.334577560424805 C 10.217251539230347 18.38938808441162 10.779787302017212 19.350448608398438 11.60226845741272 19.03128147125244 C 12.188695907592773 19.156102180480957 12.672563552856445 17.646780967712402 12.971137046813965 16.09905195236206 C 12.991121292114258 14.239701747894287 13.442593574523926 14.453733444213867 12.430184841156006 14.135865211486816 " fill="none" stroke="black" stroke-width="0.3"></path></svg>
