<svg xmlns="http://www.w3.org/2000/svg" xmlns:xlink="http://www.w3.org/1999/xlink" width="50px" height="50px" style="-ms-transform: rotate(360deg); -webkit-transform: rotate(360deg); transform: rotate(360deg);" preserveAspectRatio="xMidYMid meet" viewBox="0 0 24 24"><path d="M 13.83235788345337 10.274410486221313 C 16.3333740234375 10.2172372341156 18.301029682159424 12.075775623321533 17.55926513671875 15.433529376983643 C 17.106987476348877 16.444355964660645 18.274442195892334 17.09120750427246 11.219533681869507 17.86576223373413 C 11.320322513580322 17.912738800048828 11.043986320495605 19.56718111038208 12.42383623123169 19.30257225036621 C 12.73221731185913 19.495415210723877 13.408800601959229 18.97872018814087 14.22273874282837 18.870695114135742 L 16.3904070854187 18.58207368850708 C 15.65191125869751 22.51230525970459 16.278691291809082 22.120222091674805 12.185050964355469 23.0058274269104 C 8.30910587310791 22.905223846435547 6.584686517715454 20.705841064453125 6.960213661193848 17.473505973815918 C 7.132509469985962 12.93215274810791 10.09142017364502 9.895510911941528 13.83235788345337 10.274410486221313 M 12.910311698913574 13.563560485839844 C 12.312013149261475 13.718241691589355 11.803665161132812 14.569868087768555 11.461585521697998 15.978063583374023 C 10.791975259780884 15.421875 10.992842674255371 15.350918769836426 12.35260534286499 15.384344100952148 C 13.62842845916748 15.100489139556885 13.955716609954834 15.062151432037354 13.888933181762695 14.322761535644531 C 13.322330474853516 13.042362213134766 12.843955993652344 13.876197338104248 12.910311698913574 13.563560485839844 " fill="none" stroke="black" stroke-width="0.3"></path></svg>
