<svg xmlns="http://www.w3.org/2000/svg" xmlns:xlink="http://www.w3.org/1999/xlink" width="50px" height="50px" style="-ms-transform: rotate(360deg); -webkit-transform: rotate(360deg); transform: rotate(360deg);" preserveAspectRatio="xMidYMid meet" viewBox="0 0 24 24"><path d="M 14.751561641693115 4.801841497421265 C 15.159225940704346 4.632107734680176 16.999833583831787 5.157110095024109 17.18192481994629 5.237085700035095 L 16.561386108398438 7.974452018737793 C 16.36408281326294 8.588687181472778 15.929338932037354 8.326972961425781 15.049816131591797 8.40203046798706 C 14.606160163879395 8.515708923339844 13.619376182556152 9.989361047744751 14.154906749725342 10.670893907546997 L 15.988965511322021 10.694552421569824 L 15.589542388916016 14.332460403442383 L 13.468018054962158 14.36440372467041 L 12.111292362213135 22.659361839294434 L 7.832277059555054 22.751944541931152 C 8.300931215286255 19.869114875793457 8.862375497817993 17.14729356765747 9.218417644500732 14.17011308670044 C 9.653485536575317 14.22205638885498 7.791489601135254 14.181525707244873 8.021437168121338 13.91996955871582 L 8.476714611053467 11.817200660705566 C 8.658065557479858 11.179856300354004 8.058878660202026 10.52166223526001 9.195031642913818 10.710806608200073 C 10.275106430053711 10.5375816822052 9.809494256973267 9.437604188919067 10.433616399765015 7.76409387588501 C 10.864420652389526 5.874104261398315 13.02993106842041 4.478456497192383 14.751561641693115 4.801841497421265 " fill="none" stroke="black" stroke-width="0.3"></path></svg>
