<svg xmlns="http://www.w3.org/2000/svg" xmlns:xlink="http://www.w3.org/1999/xlink" width="50px" height="50px" style="-ms-transform: rotate(360deg); -webkit-transform: rotate(360deg); transform: rotate(360deg);" preserveAspectRatio="xMidYMid meet" viewBox="0 0 24 24"><path d="M 11.95012092590332 10.431798219680786 C 13.432442665100098 10.339754819869995 14.32776689529419 10.739564895629883 14.675857543945312 10.578559398651123 L 15.277416229248047 10.547668933868408 L 18.05276584625244 10.876772403717041 L 16.436038970947266 22.340506553649902 C 15.308710098266602 26.341057777404785 15.952445983886719 31.35977554321289 11.077316522598267 29.839113235473633 C 8.221099376678467 29.207983016967773 6.7304792404174805 28.946036338806152 6.532605886459351 28.566370010375977 L 7.362573623657227 25.873875617980957 C 7.983708143234253 26.245430946350098 8.844676494598389 26.594904899597168 6.978610038757324 24.36149311065674 C 9.65438461303711 24.93863010406494 11.206618309020996 24.81108283996582 12.11125373840332 23.150656700134277 L 12.279368877410889 21.3966007232666 C 10.84393858909607 22.97157382965088 10.143108129501343 22.685068130493164 9.784384489059448 22.667475700378418 C 7.736236095428467 23.00475025177002 6.050585746765137 21.07520341873169 6.210430383682251 18.04780340194702 C 6.215133190155029 13.678908348083496 8.700677633285522 10.268779277801514 11.95012092590332 10.431798219680786 M 12.521132469177246 14.353468894958496 C 11.744151592254639 14.083949089050293 11.018588304519653 15.698241233825684 10.790083408355713 17.323047637939453 C 10.771341562271118 18.62142562866211 10.978056192398071 19.149816513061523 11.377533674240112 18.990962505340576 C 12.223578929901123 19.23753833770752 12.760229587554932 18.23348379135132 12.981425285339355 16.91493272781372 C 13.233471393585205 15.863535404205322 13.20719575881958 14.036074161529541 13.270686149597168 14.441386699676514 C 12.756853580474854 14.29341745376587 12.369735717773438 14.1480073928833 12.521132469177246 14.353468894958496 " fill="none" stroke="black" stroke-width="0.3"></path></svg>
