<svg xmlns="http://www.w3.org/2000/svg" xmlns:xlink="http://www.w3.org/1999/xlink" width="50px" height="50px" style="-ms-transform: rotate(360deg); -webkit-transform: rotate(360deg); transform: rotate(360deg);" preserveAspectRatio="xMidYMid meet" viewBox="0 0 24 24"><path d="M 11.815946817398071 10.361534357070923 C 13.829526901245117 10.210421562194824 14.16099214553833 10.869431734085083 14.63161039352417 11.896803617477417 C 16.016736030578613 10.732291460037231 16.443511962890625 10.258874416351318 18.41998815536499 10.329765558242798 C 20.00705337524414 10.435283660888672 21.091516971588135 11.451695680618286 20.932022094726562 13.676937103271484 C 20.973883152008057 13.754669666290283 20.65524959564209 16.3483829498291 20.541101932525635 16.466089725494385 L 19.702305793762207 22.719820976257324 L 15.254543781280518 22.677278995513916 L 16.367219924926758 16.051278591156006 C 16.3681697845459 15.990205764770508 16.445802211761475 15.399373054504395 16.472495555877686 15.581568717956543 C 16.56238889694214 14.415834903717041 16.681756496429443 14.161316871643066 15.535107135772705 14.284087657928467 C 14.716970443725586 14.489798069000244 14.837727069854736 14.646881103515625 14.446878433227539 15.968450546264648 L 13.335714340209961 22.690309524536133 L 9.120350360870361 22.68595790863037 L 10.23717212677002 15.984113216400146 C 10.183108806610107 15.4496169090271 10.427844285964966 15.102806568145752 10.264652252197266 15.60113525390625 C 10.17603349685669 14.493305683135986 10.377735614776611 14.264955997467041 9.580302000045776 14.219711780548096 C 8.382181406021118 14.456308364868164 8.709182739257812 15.267813205718994 8.282564878463745 16.638638019561768 L 7.364157199859619 22.689847469329834 L 3.178485631942749 22.685514450073242 L 4.7977516651153564 10.48960018157959 L 8.685280323028564 10.334137916564941 L 8.528141498565674 11.960397005081177 C 9.86107063293457 11.090872764587402 10.239139795303345 10.196020603179932 11.815946817398071 10.361534357070923 " fill="none" stroke="black" stroke-width="0.3"></path></svg>
