<svg xmlns="http://www.w3.org/2000/svg" xmlns:xlink="http://www.w3.org/1999/xlink" width="50px" height="50px" style="-ms-transform: rotate(360deg); -webkit-transform: rotate(360deg); transform: rotate(360deg);" preserveAspectRatio="xMidYMid meet" viewBox="0 0 24 24"><path d="M 13.393219470977783 10.39661693572998 C 16.88131856918335 9.746965885162354 18.57057523727417 12.002110004425049 17.794857501983643 16.60056495666504 C 17.20674991607666 21.1165452003479 13.95596981048584 24.101640701293945 10.311709642410278 22.31641674041748 C 10.044687509536743 25.480464935302734 10.240390062332153 24.756314277648926 8.897096157073975 23.97259283065796 L 8.10001802444458 29.443531036376953 L 4.535889029502869 30.428672790527344 L 7.468500852584839 11.437632322311401 L 7.734472990036011 10.396805763244629 L 7.671278715133667 10.634897232055664 C 10.534335851669312 10.394312381744385 13.532505512237549 10.745991468429565 13.393219470977783 10.39661693572998 M 11.886920928955078 14.555142402648926 C 11.595216751098633 15.25422477722168 11.181764602661133 16.17643976211548 10.911215543746948 18.801321029663086 C 10.637711763381958 16.39028835296631 11.044349670410156 17.853579998016357 11.014511346817017 19.050986766815186 C 12.513755321502686 19.25529956817627 12.847063064575195 18.346973419189453 13.42613410949707 16.346989631652832 C 13.658010005950928 14.276495933532715 12.896807670593262 13.909144878387451 11.886920928955078 14.555142402648926 " fill="none" stroke="black" stroke-width="0.3"></path></svg>
