<svg xmlns="http://www.w3.org/2000/svg" xmlns:xlink="http://www.w3.org/1999/xlink" width="50px" height="50px" style="-ms-transform: rotate(360deg); -webkit-transform: rotate(360deg); transform: rotate(360deg);" preserveAspectRatio="xMidYMid meet" viewBox="0 0 24 24"><path d="M 13.616226196289062 10.296410322189331 C 14.473784923553467 10.340503692626953 15.724790096282959 10.287662029266357 16.774762630462646 10.97474455833435 L 15.864269256591797 14.093377590179443 C 14.88555908203125 14.06498908996582 15.096323490142822 13.430462837219238 12.799160957336426 13.809001922607422 C 13.302487850189209 13.721809387207031 12.717292785644531 13.871066093444824 12.73223876953125 14.307809829711914 C 12.638367176055908 14.35295820236206 12.825636863708496 14.884923934936523 13.311766147613525 15.180830955505371 C 14.955240726470947 15.44527530670166 16.013468742370605 16.8605375289917 15.809626579284668 18.82304334640503 C 15.446528434753418 21.518400192260742 13.589384078979492 23.08419942855835 9.995356321334839 22.893811225891113 C 8.187824964523315 22.513601303100586 7.720050573348999 22.63025665283203 7.0668110847473145 22.10432481765747 L 7.961732625961304 18.744718551635742 C 8.872425556182861 18.51362371444702 9.4012770652771 19.608927726745605 10.96776294708252 19.3102970123291 C 11.352806568145752 19.146456241607666 11.728894472122192 18.949580669403076 11.110958576202393 18.20640993118286 C 10.754254817962646 17.941725254058838 10.27357292175293 17.73987579345703 9.803645610809326 17.478989124298096 C 8.63732099533081 16.683242797851562 8.06995439529419 15.363378524780273 8.455541610717773 13.767728805541992 C 9.164849281311035 11.074708700180054 11.400375366210938 10.4048752784729 13.616226196289062 10.296410322189331 " fill="none" stroke="black" stroke-width="0.3"></path></svg>
