<svg xmlns="http://www.w3.org/2000/svg" xmlns:xlink="http://www.w3.org/1999/xlink" width="50px" height="50px" style="-ms-transform: rotate(360deg); -webkit-transform: rotate(360deg); transform: rotate(360deg);" preserveAspectRatio="xMidYMid meet" viewBox="0 0 24 24"><path d="M 7.625525236129761 10.693214178085327 L 12.075064659118652 10.425898790359497 L 11.011884927749634 17.175375938415527 C 10.766228914260864 19.12874937057495 11.24567985534668 18.964553833007812 11.227905035018921 18.879572868347168 C 11.142215251922607 19.055082321166992 11.50731611251831 19.252628803253174 10.819129943847656 18.848201751708984 C 11.208758354187012 18.875361442565918 11.425138235092163 19.160502433776855 12.190003395080566 18.90703582763672 C 12.390681266784668 18.514140129089355 12.675549030303955 18.41848611831665 12.967875480651855 16.97110891342163 L 13.944906234741211 10.780539751052856 L 18.241790771484375 10.782191276550293 L 16.170106887817383 22.610522747039795 L 10.709785223007202 22.743847846984863 C 10.649730920791626 21.848462104797363 11.291720151901245 20.762997150421143 12.398543357849121 21.671682357788086 C 11.988550186157227 22.5630784034729 10.914071559906006 23.259724617004395 8.997469425201416 22.86605215072632 C 7.3415515422821045 22.576603889465332 6.319169998168945 21.26513671875 6.535696506500244 19.35871696472168 C 6.570389986038208 17.60115623474121 7.464494705200195 12.648274898529053 7.625525236129761 10.693214178085327 " fill="none" stroke="black" stroke-width="0.3"></path></svg>
