<svg xmlns="http://www.w3.org/2000/svg" xmlns:xlink="http://www.w3.org/1999/xlink" width="50px" height="50px" style="-ms-transform: rotate(360deg); -webkit-transform: rotate(360deg); transform: rotate(360deg);" preserveAspectRatio="xMidYMid meet" viewBox="0 0 24 24"><path d="M 7.303713083267212 5.3389681577682495 L 12.205836296081543 5.347178220748901 C 14.321818828582764 5.283052682876587 16.339691162109375 6.572519302368164 16.24168109893799 9.483256816864014 C 16.19858694076538 12.33396863937378 15.037867069244385 12.550209045410156 14.069611072540283 13.612961769104004 C 15.058251857757568 13.953733921051025 16.709760189056396 15.216088771820068 16.552996158599854 17.67875576019287 C 16.736233234405518 20.998090267181396 14.78805685043335 22.74049472808838 12.102514743804932 22.69081449508667 L 7.474962472915649 22.682636260986328 L 7.475961685180664 21.613760948181152 L 8.11350703239441 20.94241189956665 L 8.145283699035645 7.432162284851074 C 8.139493703842163 6.545248746871948 7.292841911315918 6.572991371154785 7.286599159240723 6.0846312046051025 L 7.303713083267212 5.3389681577682495 M 10.90340781211853 7.018585681915283 C 10.747800350189209 7.037741661071777 10.404667139053345 7.028153657913208 10.980764150619507 6.9097723960876465 L 10.991743326187134 12.569965839385986 C 11.389640808105469 12.784410953521729 11.216131925582886 12.414537906646729 11.429657936096191 12.589847087860107 C 12.66549825668335 12.582069396972656 13.285792350769043 11.801941394805908 13.247443199157715 9.745192766189575 C 13.163326263427734 8.352097034454346 12.96099328994751 6.914812803268433 10.90340781211853 7.018585681915283 M 10.945438385009766 14.496994972229004 C 10.928517580032349 15.252307891845703 10.8919837474823 15.414735317230225 10.93998670578003 15.886852741241455 L 10.9221510887146 19.951510906219482 C 10.849979639053345 19.729529857635498 10.99335265159607 21.033615589141846 11.10857892036438 20.8683443069458 C 12.922471046447754 21.331103324890137 13.780803680419922 19.554749965667725 13.552924633026123 17.155292987823486 C 13.209680557250977 15.384615898132324 12.20584487915039 14.226224899291992 10.945438385009766 14.496994972229004 " fill="none" stroke="black" stroke-width="0.3"></path></svg>
