<svg xmlns="http://www.w3.org/2000/svg" xmlns:xlink="http://www.w3.org/1999/xlink" width="50px" height="50px" style="-ms-transform: rotate(360deg); -webkit-transform: rotate(360deg); transform: rotate(360deg);" preserveAspectRatio="xMidYMid meet" viewBox="0 0 24 24"><path d="M 7.89373254776001 5.348695278167725 L 15.760060787200928 5.3404505252838135 L 15.784037590026855 9.36670732498169 L 15.098872661590576 9.15489935874939 L 14.082643032073975 7.205159425735474 L 11.525769710540771 7.040112733840942 L 11.573839902877808 12.622361183166504 L 13.03289794921875 12.558470249176025 L 14.034291744232178 11.859802007675171 L 14.521801471710205 12.093162059783936 L 14.692844867706299 15.1539888381958 L 14.210922718048096 16.022998809814453 C 13.733635425567627 14.63857126235962 12.977545738220215 14.755036354064941 12.48440408706665 14.678730010986328 L 11.538918256759644 14.535780429840088 L 11.53479552268982 20.965880870819092 C 11.413063287734985 20.84635305404663 12.064188480377197 20.90264368057251 12.984686851501465 20.900845527648926 C 14.548333168029785 20.829864978790283 13.974430561065674 20.228947162628174 15.00957441329956 18.823861598968506 L 15.968656539916992 18.783847332000732 C 16.22629451751709 20.089240550994873 15.820545673370361 22.25741672515869 15.995514392852783 22.690911769866943 L 7.84713077545166 22.68390941619873 L 7.917778730392456 21.546810150146484 C 8.973912477493286 21.123480319976807 8.439160108566284 21.333374977111816 8.682856321334839 17.77301788330078 L 8.6524658203125 7.127535581588745 C 8.559917449951172 6.476607084274292 8.004880428314209 6.424727439880371 7.913138151168823 5.846639156341553 L 7.89373254776001 5.348695278167725 " fill="none" stroke="black" stroke-width="0.3"></path></svg>
