<svg xmlns="http://www.w3.org/2000/svg" xmlns:xlink="http://www.w3.org/1999/xlink" width="50px" height="50px" style="-ms-transform: rotate(360deg); -webkit-transform: rotate(360deg); transform: rotate(360deg);" preserveAspectRatio="xMidYMid meet" viewBox="0 0 24 24"><path d="M 8.040696144104004 5.3367708921432495 L 16.030351638793945 5.356391429901123 L 16.13319969177246 8.940994262695312 L 15.965835571289062 9.405790328979492 C 15.0185866355896 9.226536512374878 14.66720724105835 6.727168321609497 14.570727825164795 7.458324909210205 C 15.04290246963501 7.390058755874634 14.196945190429688 7.057180881500244 12.582648754119873 7.071616172790527 C 12.386047840118408 6.968379020690918 11.80391263961792 7.225567102432251 11.801125288009644 6.895534515380859 L 11.698287963867188 12.760248184204102 L 12.429350852966309 12.75351333618164 C 14.032622337341309 12.706953048706055 14.031146049499512 11.544329166412354 14.606321811676025 11.669254302978516 L 14.873981952667236 11.873653650283813 C 14.894062042236328 14.17569351196289 15.120479106903076 16.16879653930664 14.691408634185791 16.734785556793213 L 14.186586856842041 15.265023708343506 C 13.59131669998169 14.512258529663086 12.469847202301025 14.778980255126953 11.831992149353027 14.662560939788818 L 11.759057521820068 14.516491413116455 L 11.750907182693481 21.01422929763794 C 11.910252571105957 21.367997646331787 12.406604290008545 21.243794918060303 12.515939712524414 21.747270584106445 L 12.556490421295166 22.68887186050415 L 8.115823745727539 22.685400009155273 L 8.009416580200195 22.112212657928467 C 8.10294485092163 21.030465602874756 8.929906368255615 22.22788095474243 8.871251106262207 20.399155139923096 L 8.95285177230835 7.03283429145813 C 8.635881185531616 6.381282091140747 8.183245182037354 6.223005294799805 8.187382936477661 6.256802558898926 L 8.040696144104004 5.3367708921432495 " fill="none" stroke="black" stroke-width="0.3"></path></svg>
