<svg xmlns="http://www.w3.org/2000/svg" xmlns:xlink="http://www.w3.org/1999/xlink" width="50px" height="50px" style="-ms-transform: rotate(360deg); -webkit-transform: rotate(360deg); transform: rotate(360deg);" preserveAspectRatio="xMidYMid meet" viewBox="0 0 24 24"><path d="M 12.240640640258789 5.043420910835266 C 13.485526084899902 4.956513404846191 13.977034091949463 5.649217128753662 15.403013706207275 5.696360349655151 L 15.30069637298584 5.438442707061768 L 15.740132331848145 6.731550693511963 L 15.8768892288208 9.983937978744507 L 15.030744552612305 9.721274614334106 C 13.610568523406982 9.81527066230774 14.320156574249268 6.804286479949951 12.133609771728516 7.1785783767700195 C 11.711692571640015 6.918582916259766 10.464827299118042 8.36055850982666 10.43383526802063 13.04274845123291 C 10.318853616714478 18.586053371429443 10.85496997833252 21.1878604888916 12.789437770843506 20.984313011169434 C 13.308596134185791 20.944932460784912 13.588783264160156 20.19086980819702 13.546387195587158 18.60776996612549 L 13.50643014907837 16.02454376220703 L 12.052393913269043 15.643512725830078 L 11.834930419921875 14.026262283325195 L 16.535881519317627 14.033726692199707 L 16.219741344451904 16.216628551483154 L 16.106294631958008 17.349881172180176 L 16.08054828643799 22.325660705566406 L 12.833177089691162 22.912410736083984 L 12.994547367095947 21.6203670501709 C 13.897632122039795 22.802048206329346 13.095288276672363 22.988204956054688 11.625805377960205 22.959627628326416 C 8.595577239990234 22.440842628479004 6.717021703720093 18.56802463531494 7.3081955909729 12.189926147460938 C 7.982617378234863 7.521607160568237 9.602850437164307 5.417616963386536 12.240640640258789 5.043420910835266 " fill="none" stroke="black" stroke-width="0.3"></path></svg>
