<svg xmlns="http://www.w3.org/2000/svg" xmlns:xlink="http://www.w3.org/1999/xlink" width="50px" height="50px" style="-ms-transform: rotate(360deg); -webkit-transform: rotate(360deg); transform: rotate(360deg);" preserveAspectRatio="xMidYMid meet" viewBox="0 0 24 24"><path d="M 10.074449300765991 5.465959668159485 L 14.737059116363525 5.420727610588074 L 14.534538745880127 6.286936283111572 C 14.079467296600342 6.904418706893921 13.814759731292725 6.456313848495483 13.7935209274292 8.210631608963013 L 13.918723583221436 17.565078735351562 C 13.824817657470703 21.43223762512207 13.757935523986816 23.2075252532959 10.179447412490845 22.8959698677063 C 8.426033020019531 22.920098304748535 8.237908601760864 22.738553524017334 8.600322246551514 20.213969707489014 C 9.447243690490723 20.2066068649292 9.571950674057007 18.716298580169678 9.890878915786743 18.646202087402344 C 9.510228395462036 18.878624439239502 9.534580707550049 19.59096908569336 9.501118183135986 19.655741214752197 C 9.620354890823364 18.64082908630371 9.589351415634155 19.552571296691895 8.98974323272705 20.094703674316406 C 10.221134662628174 20.82509994506836 9.954885005950928 21.59864616394043 9.745580434799194 20.73674440383911 C 10.89936876296997 21.254818439483643 10.95168399810791 20.071227550506592 11.040974378585815 19.076215267181396 C 11.012130975723267 17.58659791946411 11.072017192840576 16.14087724685669 11.061892747879028 14.145514011383057 C 11.16017746925354 9.276660203933716 11.060326337814331 8.245348691940308 11.217787027359009 7.5328896045684814 C 11.437326908111572 6.411548137664795 10.549212455749512 6.707674026489258 10.27998161315918 6.387940406799316 L 10.074449300765991 5.465959668159485 " fill="none" stroke="black" stroke-width="0.3"></path></svg>
