<svg xmlns="http://www.w3.org/2000/svg" xmlns:xlink="http://www.w3.org/1999/xlink" width="50px" height="50px" style="-ms-transform: rotate(360deg); -webkit-transform: rotate(360deg); transform: rotate(360deg);" preserveAspectRatio="xMidYMid meet" viewBox="0 0 24 24"><path d="M 5.972699761390686 5.557157635688782 L 9.926748275756836 5.452929496765137 L 11.995187759399414 14.856335163116455 L 14.179583072662354 5.536815404891968 L 17.664958477020264 5.516412019729614 L 17.426846981048584 6.675346612930298 C 17.301674365997314 7.1931374073028564 16.760842323303223 7.41103720664978 17.565678119659424 5.979057669639587 C 16.90925645828247 6.643120765686035 17.54152536392212 13.428962230682373 17.51912784576416 21.19926881790161 L 18.39155673980713 21.826017379760742 L 18.412160396575928 22.68927526473999 L 14.528275966644287 22.68392515182495 L 14.50283432006836 21.894025325775146 L 14.74370813369751 20.844716548919678 C 14.575069427490234 17.45802068710327 14.587360382080078 9.725840091705322 15.436829566955566 8.241841077804565 L 12.156909942626953 22.431926250457764 L 11.17978549003601 22.671698570251465 C 9.856075286865234 18.405999183654785 8.94938063621521 12.192448139190674 8.653589487075806 11.11439037322998 L 8.500560522079468 20.08872127532959 L 8.7170569896698 22.05415964126587 L 8.842626571655273 22.687374114990234 L 5.832784652709961 22.69026803970337 L 5.8921144008636475 22.11016273498535 L 6.678237676620483 21.19966220855713 C 6.863827228546143 17.140814781188965 7.0693724155426025 9.098854064941406 6.9014246463775635 7.179847955703735 L 5.948623538017273 6.4584503173828125 L 5.972699761390686 5.557157635688782 " fill="none" stroke="black" stroke-width="0.3"></path></svg>
