<svg xmlns="http://www.w3.org/2000/svg" xmlns:xlink="http://www.w3.org/1999/xlink" width="50px" height="50px" style="-ms-transform: rotate(360deg); -webkit-transform: rotate(360deg); transform: rotate(360deg);" preserveAspectRatio="xMidYMid meet" viewBox="0 0 24 24"><path d="M 7.538187503814697 5.340222001075745 L 11.77072262763977 5.343632698059082 C 14.821519374847412 5.178382158279419 16.927133560180664 6.616225004196167 16.802684783935547 10.435235738754272 C 16.762544631958008 13.273163795471191 14.581997394561768 15.461880683898926 12.084440231323242 15.234131813049316 L 11.327840566635132 15.28407096862793 L 11.289851188659668 21.152808666229248 L 12.034049034118652 21.80844497680664 L 12.086631774902344 22.68842840194702 L 7.616103887557983 22.6845645904541 L 7.63998556137085 21.709998607635498 L 8.318125247955322 21.207557201385498 L 8.457517862319946 6.954471588134766 L 7.57523775100708 6.096737623214722 L 7.538187503814697 5.340222001075745 M 11.430145740509033 6.937838315963745 C 11.002152442932129 7.197420358657837 11.59477972984314 7.330695390701294 11.28618049621582 7.227440357208252 L 11.284182071685791 13.482205867767334 C 11.28919243812561 13.536578178405762 10.832146883010864 13.618055820465088 11.110161066055298 13.445518970489502 C 12.785189151763916 13.514034748077393 13.758177280426025 12.433114528656006 13.718406200408936 10.048571348190308 C 13.647166728973389 7.665290594100952 12.956678867340088 7.1684181690216064 11.430145740509033 6.937838315963745 " fill="none" stroke="black" stroke-width="0.3"></path></svg>
