<svg xmlns="http://www.w3.org/2000/svg" xmlns:xlink="http://www.w3.org/1999/xlink" width="50px" height="50px" style="-ms-transform: rotate(360deg); -webkit-transform: rotate(360deg); transform: rotate(360deg);" preserveAspectRatio="xMidYMid meet" viewBox="0 0 24 24"><path d="M 11.942314624786377 5.100562691688538 C 15.024345874786377 5.023441672325134 16.973263263702393 8.451781511306763 17.05669641494751 13.818325996398926 C 16.89290428161621 18.816640377044678 15.699686050415039 21.87432861328125 13.044453620910645 22.960096836090088 C 13.679885387420654 21.182498931884766 14.300312519073486 22.981741905212402 14.968324184417725 23.696624279022217 C 15.384768962860107 25.854517936706543 15.644554138183594 26.28679847717285 15.429795742034912 26.869239807128906 L 13.852884292602539 27.442279815673828 C 13.286566257476807 26.459086418151855 12.69810962677002 25.474448204040527 13.461161613464355 24.09055995941162 C 11.94242262840271 24.645275115966797 12.484255313873291 22.77315902709961 11.24974536895752 23.080016613006592 C 10.234130859375 22.70844841003418 9.776875019073486 22.466430187225342 9.575709342956543 22.262691020965576 C 8.234187126159668 20.944291591644287 7.039177894592285 18.96100616455078 7.055809736251831 14.284561157226562 C 7.086681604385376 8.832906246185303 8.879823446273804 5.223273396492004 11.942314624786377 5.100562691688538 M 11.933433294296265 6.950524091720581 C 10.722239971160889 6.911468982696533 10.220341444015503 9.823897361755371 10.237797975540161 13.74880599975586 C 10.194279670715332 18.867985725402832 10.711501836776733 20.758362293243408 11.7485511302948 21.181416034698486 C 13.421539306640625 20.908913612365723 13.648328304290771 18.60340118408203 13.860448837280273 13.746464252471924 C 13.703031063079834 9.51408076286316 13.445202827453613 7.378121852874756 11.933433294296265 6.950524091720581 " fill="none" stroke="black" stroke-width="0.3"></path></svg>
