<svg xmlns="http://www.w3.org/2000/svg" xmlns:xlink="http://www.w3.org/1999/xlink" width="50px" height="50px" style="-ms-transform: rotate(360deg); -webkit-transform: rotate(360deg); transform: rotate(360deg);" preserveAspectRatio="xMidYMid meet" viewBox="0 0 24 24"><path d="M 7.088606357574463 5.398025393486023 L 11.650594711303711 5.325670123100281 C 14.248728275299072 5.277814865112305 16.497317790985107 6.582304000854492 16.301446437835693 10.121000289916992 C 16.434863090515137 12.4985990524292 14.136357307434082 14.072988510131836 14.102188110351562 13.973080158233643 L 15.859982013702393 18.011723041534424 C 15.51417589187622 16.88316822052002 16.08622169494629 21.82799005508423 17.09988498687744 21.298935413360596 L 17.113647937774658 22.70328998565674 C 17.184993267059326 22.66232442855835 16.12137794494629 22.711585521697998 13.987539768218994 22.6861252784729 C 13.681281566619873 22.85725450515747 13.264812469482422 20.623635292053223 13.094633102416992 20.37027883529663 L 11.838332891464233 15.2211012840271 L 10.917860269546509 14.715442657470703 L 10.814058780670166 20.875738620758057 C 10.84476613998413 21.269687175750732 11.409378290176392 21.80476999282837 11.388085126876831 21.889564990997314 L 11.521097660064697 22.68570899963379 L 7.099468946456909 22.689788818359375 L 7.119410276412964 21.625006198883057 C 7.550175189971924 21.09216070175171 7.963665246963501 21.61042356491089 7.960904359817505 20.293331623077393 L 7.958594799041748 8.33928108215332 C 7.886988401412964 6.449018239974976 7.81433629989624 7.165735244750977 7.1954827308654785 6.26296591758728 L 7.088606357574463 5.398025393486023 M 11.121095895767212 7.110041856765747 C 10.78370475769043 7.047034978866577 10.903136014938354 6.985883474349976 10.898367404937744 8.085237979888916 L 10.90738821029663 12.998740196228027 C 11.42941403388977 13.070098400115967 12.453579425811768 12.534748077392578 11.494396448135376 12.939838886260986 C 12.525240898132324 13.13995885848999 13.42177677154541 11.36759090423584 13.274365425109863 9.910665035247803 C 13.299777030944824 8.813363313674927 13.1475191116333 7.0710976123809814 11.121095895767212 7.110041856765747 " fill="none" stroke="black" stroke-width="0.3"></path></svg>
