<svg xmlns="http://www.w3.org/2000/svg" xmlns:xlink="http://www.w3.org/1999/xlink" width="50px" height="50px" style="-ms-transform: rotate(360deg); -webkit-transform: rotate(360deg); transform: rotate(360deg);" preserveAspectRatio="xMidYMid meet" viewBox="0 0 24 24"><path d="M 12.370645523071289 5.090866684913635 C 13.064818382263184 5.070659637451172 13.67717456817627 5.6061365604400635 15.34969711303711 5.675605773925781 L 15.549765586853027 5.7298314571380615 L 15.325753211975098 5.671599626541138 L 15.405607223510742 9.868464231491089 L 14.709470272064209 9.7656569480896 C 13.24268388748169 8.5270357131958 14.18752670288086 7.495687007904053 12.031908988952637 6.9571709632873535 C 11.155192852020264 7.128152132034302 10.91713571548462 7.363097906112671 10.762814283370972 8.811249732971191 C 10.7009117603302 9.995336294174194 11.48274850845337 11.246276378631592 12.646448135375977 12.321960926055908 C 14.296796321868896 14.152819633483887 16.49509334564209 15.540746212005615 16.049460411071777 19.06059980392456 C 15.610118865966797 21.439867973327637 13.866323947906494 23.329969882965088 11.111279010772705 22.851257801055908 C 9.085382223129272 22.339533805847168 8.224553346633911 22.323423385620117 8.427161693572998 21.510425090789795 L 8.731938600540161 22.412921905517578 L 8.301470518112183 21.411197662353516 L 8.390767335891724 18.55845880508423 L 8.68853759765625 17.627509117126465 C 9.7668936252594 18.25626039505005 9.400259971618652 20.91481876373291 11.741010904312134 20.989301204681396 C 12.876821994781494 20.731149673461914 13.333394050598145 19.656643867492676 13.295808792114258 18.668540954589844 C 13.256501197814941 17.354318618774414 12.355148792266846 16.273927688598633 11.520877361297607 15.622951984405518 C 10.080395221710205 14.025393962860107 7.9958531856536865 12.658501625061035 8.276254177093506 9.228155851364136 C 8.24505615234375 7.021827936172485 10.163543701171875 4.989452004432678 12.370645523071289 5.090866684913635 " fill="none" stroke="black" stroke-width="0.3"></path></svg>
