<svg xmlns="http://www.w3.org/2000/svg" xmlns:xlink="http://www.w3.org/1999/xlink" width="50px" height="50px" style="-ms-transform: rotate(360deg); -webkit-transform: rotate(360deg); transform: rotate(360deg);" preserveAspectRatio="xMidYMid meet" viewBox="0 0 24 24"><path d="M 4.3330206871032715 5.456899166107178 L 8.694040060043335 5.46570360660553 L 8.61519455909729 6.025049686431885 C 8.376683950424194 6.639322757720947 8.174912452697754 6.5690696239471436 8.179219007492065 7.313731670379639 C 8.223164319992065 8.185810089111328 8.50353455543518 9.73998498916626 8.06797742843628 7.399291276931763 L 9.667706966400146 15.983458042144775 L 10.582546949386597 10.998560428619385 L 10.856913328170776 6.839285373687744 L 10.184748888015747 6.029235363006592 L 10.156065702438354 5.529353499412537 L 14.055865287780762 5.5296313762664795 L 14.047644138336182 5.542375087738037 L 13.361968517303467 5.559397101402283 C 13.282775402069092 5.515350580215454 13.302513599395752 6.742105722427368 13.454631328582764 7.289912939071655 C 13.439309120178223 7.455795764923096 13.533499717712402 8.3266282081604 13.366750717163086 6.834371566772461 L 15.00682783126831 15.975944995880127 L 16.532197952270508 7.381050109863281 C 16.523662090301514 6.582748889923096 16.24143075942993 7.195801734924316 15.783960342407227 6.102139234542847 L 15.826446533203125 5.5742493867874146 L 16.026370525360107 5.439721584320068 L 19.353243827819824 5.4389097690582275 L 18.96554946899414 6.405452728271484 C 18.76130247116089 6.3830859661102295 18.270019054412842 7.3138954639434814 18.28193950653076 8.349228143692017 L 15.492944240570068 22.703704833984375 L 13.751100540161133 22.80559015274048 L 11.89465856552124 13.3303542137146 L 10.184065818786621 22.74990463256836 L 8.140837669372559 22.754815578460693 C 7.256070613861084 16.602168560028076 6.484947681427002 12.983613967895508 5.53182578086853 8.03316879272461 C 5.3741759061813354 6.564105749130249 4.928894877433777 6.9120190143585205 4.460560441017151 5.867358684539795 L 4.5694252252578735 6.414105176925659 L 4.3330206871032715 5.456899166107178 " fill="none" stroke="black" stroke-width="0.3"></path></svg>
