<svg xmlns="http://www.w3.org/2000/svg" xmlns:xlink="http://www.w3.org/1999/xlink" width="50px" height="50px" style="-ms-transform: rotate(360deg); -webkit-transform: rotate(360deg); transform: rotate(360deg);" preserveAspectRatio="xMidYMid meet" viewBox="0 0 24 24"><path d="M 6.968621492385864 5.41372811794281 L 11.457010746002197 5.4892737865448 L 11.450170755386353 5.49150824546814 L 11.390768051147461 5.485709309577942 C 11.359049320220947 6.607938766479492 10.765718221664429 6.459333658218384 10.947222232818604 6.751678705215454 C 10.686239004135132 6.90145468711853 10.783775568008423 7.4017603397369385 12.1753249168396 10.873537302017212 L 13.620019912719727 7.398616790771484 C 13.53876256942749 7.632209300994873 13.779722213745117 7.1734778881073 13.294359683990479 6.290750026702881 L 13.209264278411865 5.931595087051392 L 13.193540096282959 5.529830574989319 L 16.592438220977783 5.531150579452515 L 16.372512817382812 6.440574645996094 C 15.528156280517578 6.987050771713257 15.530675411224365 7.85949969291687 15.162218570709229 8.403594017028809 L 13.189111232757568 13.27767562866211 L 16.245975494384766 20.973907470703125 C 16.47862958908081 21.326658725738525 16.75150966644287 21.488582611083984 17.042266845703125 21.829716682434082 L 17.03406572341919 22.688432693481445 L 12.819674491882324 22.688212394714355 L 12.802728652954102 22.772983074188232 C 12.5379638671875 21.61195135116577 13.147800922393799 22.06033945083618 13.051184177398682 21.06557607650757 C 13.1306791305542 20.672537326812744 11.137059688568115 16.50145196914673 11.800731182098389 16.446049690246582 L 9.93157410621643 21.039517879486084 C 9.919392585754395 21.327363967895508 10.327072620391846 22.248064041137695 10.348679065704346 22.48293685913086 L 10.447408676147461 22.69460105895996 L 6.863762140274048 22.679667949676514 L 7.011610507965088 22.118069171905518 C 7.149659156799316 21.717949390411377 7.7371909618377686 21.391417980194092 8.109713315963745 20.432740688323975 L 10.476004600524902 14.281715869903564 L 8.005828857421875 7.241076707839966 C 7.676074504852295 6.53570294380188 7.1351072788238525 6.724546909332275 6.972134828567505 6.0498082637786865 L 6.968621492385864 5.41372811794281 " fill="none" stroke="black" stroke-width="0.3"></path></svg>
