<svg xmlns="http://www.w3.org/2000/svg" xmlns:xlink="http://www.w3.org/1999/xlink" width="50px" height="50px" style="-ms-transform: rotate(360deg); -webkit-transform: rotate(360deg); transform: rotate(360deg);" preserveAspectRatio="xMidYMid meet" viewBox="0 0 24 24"><path d="M 6.796115398406982 5.339362621307373 L 11.33685564994812 5.347396016120911 L 11.220686674118042 6.428541898727417 L 10.373454809188843 6.922116279602051 C 10.669366121292114 5.627030253410339 10.697649478912354 7.935992002487183 10.613605499267578 7.227757215499878 L 12.157457828521729 11.924519062042236 L 13.623112678527832 8.01753830909729 C 13.638858318328857 8.213990449905396 13.75744342803955 7.401801824569702 13.824769020080566 7.515735626220703 C 13.998783588409424 6.894249200820923 13.60856008529663 6.608133316040039 13.419905662536621 6.208921194076538 L 13.379649639129639 5.807507514953613 L 13.388191223144531 5.340421915054321 L 16.7575421333313 5.348647713661194 L 16.441482067108154 6.476771593093872 C 15.931919574737549 7.128014087677002 16.036155223846436 6.521276235580444 15.563960552215576 8.150047302246094 L 13.174850463867188 14.85620641708374 L 13.25951099395752 20.553451538085938 C 13.154966354370117 21.40801763534546 13.679720878601074 21.23708724975586 13.909116268157959 22.03105115890503 L 13.814831256866455 21.814646244049072 L 14.005009174346924 22.68892478942871 L 9.661640882492065 22.68700075149536 L 9.591435670852661 22.31868839263916 L 9.69210934638977 21.9140682220459 C 10.226720094680786 21.35732889175415 10.558879137039185 21.767090320587158 10.482497692108154 20.21729278564453 L 10.500255346298218 15.38490343093872 L 8.02982783317566 7.675600290298462 C 7.885900497436523 7.092140436172485 7.532647132873535 6.785438776016235 6.913578271865845 6.345527172088623 L 6.796115398406982 5.339362621307373 " fill="none" stroke="black" stroke-width="0.3"></path></svg>
