<svg xmlns="http://www.w3.org/2000/svg" xmlns:xlink="http://www.w3.org/1999/xlink" width="50px" height="50px" style="-ms-transform: rotate(360deg); -webkit-transform: rotate(360deg); transform: rotate(360deg);" preserveAspectRatio="xMidYMid meet" viewBox="0 0 24 24"><path d="M 12.774298667907715 11.823894023895264 C 14.399547100067139 12.399287223815918 15.00774335861206 11.878815650939941 15.216585159301758 14.205900192260742 L 15.172057628631592 18.843358039855957 C 15.082497596740723 20.158387184143066 15.169947624206543 20.97160291671753 15.200124263763428 20.71660280227661 C 15.028401374816895 20.546595096588135 15.257510662078857 21.326748847961426 15.313030242919922 21.217450618743896 L 15.83424711227417 21.713976860046387 C 15.799229621887207 22.938164234161377 16.089513301849365 22.514312267303467 13.557967185974121 22.604215621948242 C 12.902792930603027 22.62993335723877 13.145884037017822 21.56447982788086 12.528717041015625 22.088600635528564 C 12.493027210235596 22.043500900268555 11.833323240280151 23.194026947021484 10.20525598526001 22.86875295639038 C 9.11233377456665 22.752485275268555 8.312028408050537 21.288113594055176 8.405442237854004 19.618459224700928 C 8.320701599121094 17.72552490234375 9.928447723388672 16.36133623123169 11.620178461074829 16.265819549560547 L 12.56649112701416 15.930367469787598 C 12.789012908935547 14.02016544342041 12.037796974182129 13.378596782684326 11.432680606842041 13.559609413146973 C 10.603973150253296 14.011837005615234 10.504220724105835 15.029181003570557 9.486263751983643 15.119863986968994 L 8.900706052780151 14.961846828460693 C 8.298290491104126 13.29272174835205 9.967381954193115 11.107377290725708 12.774298667907715 11.823894023895264 M 12.62955379486084 17.38141107559204 C 10.964305400848389 17.560845851898193 10.619509220123291 18.643747329711914 11.16275954246521 20.572794914245605 C 11.820982217788696 21.64762258529663 12.793895244598389 20.300432682037354 12.86080026626587 20.332953929901123 C 13.132661819458008 21.9680757522583 12.425142288208008 22.127978324890137 12.655124187469482 22.19159460067749 L 12.62955379486084 17.38141107559204 " fill="none" stroke="black" stroke-width="0.3"></path></svg>
