<svg xmlns="http://www.w3.org/2000/svg" xmlns:xlink="http://www.w3.org/1999/xlink" width="50px" height="50px" style="-ms-transform: rotate(360deg); -webkit-transform: rotate(360deg); transform: rotate(360deg);" preserveAspectRatio="xMidYMid meet" viewBox="0 0 24 24"><path d="M 7.927232980728149 5.75567901134491 L 11.146727800369263 5.521478533744812 L 11.071141004562378 12.590053081512451 C 11.60094952583313 12.224721908569336 11.864380359649658 11.662317752838135 13.373115062713623 11.643095970153809 C 15.14148759841919 12.053586959838867 16.054331302642822 13.818931102752686 16.051619052886963 17.1372127532959 C 16.03792905807495 20.59045171737671 14.974043369293213 22.988516807556152 12.319217205047607 22.997337341308594 C 11.438836812973022 23.010353565216064 10.05890679359436 21.50941514968872 10.517245531082153 21.97813367843628 L 9.894022464752197 22.632247924804688 L 8.496206760406494 22.70910930633545 L 8.467361211776733 22.025014400482178 L 8.613276958465576 20.503462314605713 L 8.6014244556427 7.193191766738892 L 7.803956508636475 6.377931118011475 L 7.927232980728149 5.75567901134491 M 11.860515832901001 13.891997337341309 C 11.15660047531128 14.176687717437744 11.33092474937439 13.840006828308105 11.16418719291687 15.787532329559326 L 11.138928651809692 19.954699516296387 C 11.330351829528809 21.79153060913086 12.683242321014404 20.842565059661865 11.121500015258789 21.29637336730957 C 11.658740758895874 20.972185134887695 12.410240650177002 21.48438549041748 12.802860260009766 20.527745246887207 C 13.418954372406006 18.81173801422119 13.297528266906738 16.979797840118408 13.16636037826538 14.995778560638428 C 12.817079544067383 13.746342658996582 12.556863784790039 13.830219268798828 11.860515832901001 13.891997337341309 " fill="none" stroke="black" stroke-width="0.3"></path></svg>
