<svg xmlns="http://www.w3.org/2000/svg" xmlns:xlink="http://www.w3.org/1999/xlink" width="50px" height="50px" style="-ms-transform: rotate(360deg); -webkit-transform: rotate(360deg); transform: rotate(360deg);" preserveAspectRatio="xMidYMid meet" viewBox="0 0 24 24"><path d="M 15.601879119873047 5.5203999280929565 L 15.510759830474854 21.03287172317505 L 15.978868961334229 21.92769956588745 L 15.96961784362793 22.702221393585205 L 13.184206008911133 22.64936113357544 L 13.091902256011963 21.35888957977295 C 13.161243438720703 22.46406841278076 11.300255298614502 23.242096424102783 10.540846109390259 22.828104972839355 C 9.20826530456543 22.73370122909546 7.922999382019043 20.494969367980957 8.168851375579834 16.97486972808838 C 8.0706045627594 14.066473960876465 9.718567371368408 11.577820301055908 11.554031610488892 11.750352144241333 C 11.969634532928467 11.560820817947388 12.843855857849121 12.325678825378418 12.967939853668213 11.822849035263062 L 12.969085693359375 7.4075517654418945 L 12.21324348449707 5.991936206817627 L 12.422159671783447 5.545045495033264 L 15.601879119873047 5.5203999280929565 M 11.78020977973938 13.540863990783691 C 10.997750759124756 13.689897537231445 10.891330003738403 14.809879302978516 10.850908041000366 16.068416118621826 C 10.804928541183472 18.834484577178955 10.87776803970337 20.826591968536377 11.853697299957275 20.915316581726074 C 12.52712345123291 20.82023048400879 13.00510025024414 20.72790241241455 13.033460140228271 19.297748565673828 L 12.982420921325684 15.053840160369873 C 12.891401767730713 13.188719272613525 12.051501274108887 13.569481372833252 11.78020977973938 13.540863990783691 " fill="none" stroke="black" stroke-width="0.3"></path></svg>
