<svg xmlns="http://www.w3.org/2000/svg" xmlns:xlink="http://www.w3.org/1999/xlink" width="50px" height="50px" style="-ms-transform: rotate(360deg); -webkit-transform: rotate(360deg); transform: rotate(360deg);" preserveAspectRatio="xMidYMid meet" viewBox="0 0 24 24"><path d="M 11.98699951171875 5.661659359931946 C 13.665337085723877 4.779396414756775 15.003510475158691 5.400318503379822 15.005249977111816 5.777752161026001 C 15.295444965362549 7.537118196487427 15.177290439605713 8.564618110656738 14.22857666015625 7.951919317245483 C 13.991878509521484 7.101147651672363 13.91026782989502 6.601057291030884 13.328527450561523 6.841785907745361 C 12.85184097290039 6.934505939483643 12.829254627227783 7.440437078475952 12.862056255340576 9.62817120552063 L 12.928168773651123 10.894328355789185 L 12.909602165222168 11.621043920516968 L 14.771920680999756 13.24678087234497 L 12.925476551055908 13.973832607269287 L 12.865163326263428 18.77315855026245 C 12.934025287628174 21.22611093521118 12.630203247070312 21.29657220840454 13.524776458740234 21.89138174057007 L 13.664265632629395 22.688069343566895 L 9.842478275299072 22.68617820739746 L 9.881221532821655 22.855087280273438 C 9.599842071533203 21.75439739227295 10.344132900238037 21.600401401519775 10.368874311447144 21.014599800109863 L 10.341159582138062 13.740652084350586 L 9.147582292556763 13.647678852081299 L 9.212090492248535 11.87510061264038 C 10.322320461273193 11.83083987236023 10.98760986328125 11.386714696884155 10.385615587234497 11.709947347640991 C 10.32733154296875 9.034877300262451 10.782073974609375 8.014500617980957 10.486743450164795 9.406668663024902 C 10.525023937225342 8.322463989257812 10.72757077217102 6.697159051895142 11.450323104858398 6.053064823150635 L 11.98699951171875 5.661659359931946 " fill="none" stroke="black" stroke-width="0.3"></path></svg>
