<svg xmlns="http://www.w3.org/2000/svg" xmlns:xlink="http://www.w3.org/1999/xlink" width="50px" height="50px" style="-ms-transform: rotate(360deg); -webkit-transform: rotate(360deg); transform: rotate(360deg);" preserveAspectRatio="xMidYMid meet" viewBox="0 0 24 24"><path d="M 12.14053201675415 11.710679054260254 C 12.940887451171875 11.961350440979004 13.528326988220215 12.539510250091553 13.97440481185913 11.977289915084839 L 14.692275524139404 11.81840443611145 L 15.881329536437988 12.114224910736084 L 15.629101753234863 12.645714282989502 L 15.268881797790527 12.856394290924072 L 14.573018074035645 21.172099113464355 C 16.525480270385742 22.09027862548828 14.756638526916504 27.508898735046387 13.84876012802124 28.822068214416504 C 10.41127324104309 26.73292350769043 9.48300576210022 25.641626358032227 9.89464259147644 24.755659103393555 L 10.391643047332764 24.151305198669434 C 10.333582162857056 25.145999908447266 10.688798904418945 25.489328384399414 10.309526681900024 24.20676898956299 C 12.325966358184814 24.125999450683594 14.01222038269043 22.811594009399414 12.187607288360596 22.71290159225464 L 11.976206302642822 21.771692276000977 C 13.117557048797607 22.70527696609497 12.845995903015137 22.864179611206055 9.80514907836914 22.727571487426758 C 7.667614459991455 21.424989223480225 9.27942967414856 19.02991819381714 8.542357921600342 17.32908296585083 C 7.7275800704956055 12.753271579742432 10.652611255645752 11.250061511993408 12.14053201675415 11.710679054260254 M 12.055014610290527 13.45854663848877 C 11.168494462966919 12.820632934570312 10.576211214065552 13.951854228973389 10.956390380859375 16.33764410018921 C 11.218742609024048 19.42161226272583 15.109085083007812 24.07559108734131 14.742434978485107 18.415896892547607 C 10.117140054702759 22.036229610443115 10.180441617965698 19.199292182922363 12.86048412322998 17.896263599395752 L 12.91208267211914 15.442707538604736 C 12.600683212280273 12.87610673904419 11.696637153625488 13.624475955963135 12.055014610290527 13.45854663848877 " fill="none" stroke="black" stroke-width="0.3"></path></svg>
