<svg xmlns="http://www.w3.org/2000/svg" xmlns:xlink="http://www.w3.org/1999/xlink" width="50px" height="50px" style="-ms-transform: rotate(360deg); -webkit-transform: rotate(360deg); transform: rotate(360deg);" preserveAspectRatio="xMidYMid meet" viewBox="0 0 24 24"><path d="M 12.134716987609863 6.593511343002319 C 12.507545471191406 6.624941110610962 13.499279022216797 7.0110790729522705 13.361844062805176 8.101578712463379 C 13.182673931121826 9.097920656204224 12.74727201461792 9.783004760742188 12.061128616333008 9.54974627494812 C 11.005215883255005 9.546677112579346 10.674044609069824 9.441322088241577 10.577491521835327 7.957753658294678 C 10.66278862953186 7.163224697113037 11.167633295059204 6.435218811035156 12.134716987609863 6.593511343002319 M 10.513851642608643 11.84220027923584 L 13.237109184265137 11.805981159210205 L 13.167450428009033 20.601609706878662 C 12.998642921447754 21.759039402008057 13.763058185577393 21.37391424179077 14.00159740447998 21.89948272705078 L 14.020493030548096 22.637733936309814 C 13.601155757904053 22.7272310256958 12.200340270996094 22.67914581298828 10.717971324920654 22.688552856445312 C 10.913959264755249 22.66373920440674 9.783740758895874 22.703258514404297 9.905992984771729 22.741268634796143 L 9.92028522491455 22.12428617477417 C 10.102141857147217 21.349704265594482 10.60571837425232 21.870978355407715 10.650705099105835 20.602643966674805 L 10.563282251358032 13.971852779388428 C 10.505481719970703 12.613080024719238 9.544173002243042 13.687894821166992 9.797122478485107 12.06484079360962 L 10.513851642608643 11.84220027923584 " fill="none" stroke="black" stroke-width="0.3"></path></svg>
