<svg xmlns="http://www.w3.org/2000/svg" xmlns:xlink="http://www.w3.org/1999/xlink" width="50px" height="50px" style="-ms-transform: rotate(360deg); -webkit-transform: rotate(360deg); transform: rotate(360deg);" preserveAspectRatio="xMidYMid meet" viewBox="0 0 24 24"><path d="M 12.132970333099365 6.61553692817688 C 12.184052467346191 6.547026872634888 13.483636379241943 7.056909799575806 13.321997165679932 8.146456003189087 C 13.221071720123291 9.322754144668579 12.7457914352417 9.790122985839844 12.061069965362549 9.714585542678833 C 10.86970067024231 9.845837116241455 10.558580875396729 8.898176908493042 10.672529697418213 7.787853956222534 C 10.674495935440063 6.974167585372925 11.577301740646362 6.489507436752319 12.132970333099365 6.61553692817688 M 11.915332317352295 11.95042634010315 L 13.233880519866943 11.88865613937378 L 13.117004871368408 23.546852588653564 C 13.237366676330566 25.550308227539062 11.439915418624878 28.326035499572754 10.23270034790039 28.443065643310547 C 9.50077486038208 28.41675853729248 8.835569858551025 28.13232707977295 8.768093347549438 27.83232021331787 L 9.281311511993408 26.960841178894043 C 9.445516347885132 27.13875102996826 9.651155233383179 27.573506355285645 9.900828838348389 27.370136260986328 C 10.281737565994263 27.059866905212402 10.368871450424194 25.935287475585938 10.637617349624634 24.79361629486084 L 10.638520002365112 13.888233661651611 C 10.45497179031372 12.957856178283691 9.322660446166992 13.009583473205566 9.960406064987183 12.105879306793213 L 9.763710737228394 12.311665534973145 L 11.915332317352295 11.95042634010315 " fill="none" stroke="black" stroke-width="0.3"></path></svg>
