<svg xmlns="http://www.w3.org/2000/svg" xmlns:xlink="http://www.w3.org/1999/xlink" width="50px" height="50px" style="-ms-transform: rotate(360deg); -webkit-transform: rotate(360deg); transform: rotate(360deg);" preserveAspectRatio="xMidYMid meet" viewBox="0 0 24 24"><path d="M 11.085097074508667 5.343899846076965 L 11.02449345588684 16.380688190460205 L 13.014983654022217 13.905943393707275 C 11.796621322631836 15.373417854309082 13.222864151000977 13.646161079406738 12.944496631622314 13.240804195404053 L 12.516381740570068 12.27533769607544 L 15.962393760681152 12.294659614562988 L 15.881871700286865 13.165443420410156 C 14.750062465667725 13.827738761901855 14.582310676574707 14.357173919677734 14.129940032958984 14.837468147277832 L 13.33806324005127 16.23985004425049 L 15.742336750030518 21.198978424072266 C 16.13151454925537 21.53049087524414 16.460419178009033 21.885087490081787 16.367370128631592 21.723219394683838 L 16.500563621520996 22.69805145263672 L 13.10782527923584 22.667871952056885 L 12.895268440246582 22.22462224960327 C 13.138328075408936 21.564411163330078 12.918747425079346 21.43641185760498 13.213956356048584 21.99698781967163 C 12.800412654876709 21.268319606781006 12.494243144989014 19.78987741470337 11.333423852920532 17.92477512359619 L 11.19616413116455 19.179410934448242 C 10.93133282661438 20.884573459625244 11.020160436630249 21.221863746643066 11.169963598251343 21.333364963531494 L 11.460305213928223 21.85006284713745 L 11.615408420562744 22.6889705657959 L 7.969629764556885 22.683078289031982 L 7.879958152770996 21.824326515197754 L 8.034017086029053 21.669735431671143 C 8.630760669708252 21.387778759002686 8.572297811508179 21.601418495178223 8.631736993789673 20.671342849731445 L 8.599106311798096 10.536961555480957 C 8.674126625061035 7.631436109542847 8.82778000831604 7.29072904586792 8.48296594619751 6.910485506057739 L 8.316966533660889 7.130749225616455 L 8.608981847763062 6.72050929069519 L 8.684797525405884 7.024410724639893 L 8.392720699310303 6.791069984436035 L 7.829724311828613 6.289795875549316 L 7.7514495849609375 5.935073375701904 L 7.953073740005493 5.54895293712616 L 9.468505382537842 5.399935841560364 L 9.070125102996826 5.368537902832031 L 11.085097074508667 5.343899846076965 " fill="none" stroke="black" stroke-width="0.3"></path></svg>
