<svg xmlns="http://www.w3.org/2000/svg" xmlns:xlink="http://www.w3.org/1999/xlink" width="50px" height="50px" style="-ms-transform: rotate(360deg); -webkit-transform: rotate(360deg); transform: rotate(360deg);" preserveAspectRatio="xMidYMid meet" viewBox="0 0 24 24"><path d="M 10.85506296157837 11.652124643325806 C 12.041557788848877 11.603719711303711 12.903511047363281 12.134262084960938 13.047971248626709 12.91710090637207 C 13.76460886001587 12.46216106414795 14.812874794006348 11.605685949325562 14.854727268218994 11.861469984054565 C 16.370608806610107 11.505241870880127 17.648756504058838 12.71079397201538 17.640326499938965 15.205801963806152 L 17.626301765441895 20.530845165252686 C 17.6834077835083 21.35000467300415 17.609810829162598 21.21072292327881 18.199984073638916 21.879404067993164 L 18.31663227081299 22.687268257141113 L 15.011934757232666 22.6895170211792 L 14.848523139953613 22.435668468475342 C 14.748682022094727 22.11095952987671 15.258632183074951 21.331900119781494 15.12081241607666 20.644545078277588 L 15.025065422058105 15.380222797393799 C 14.82584810256958 14.041882038116455 14.885384559631348 13.932506561279297 13.766469955444336 14.05332326889038 C 13.567039489746094 14.040721893310547 13.55348539352417 13.769196510314941 13.288011074066162 15.362151145935059 L 13.26622724533081 19.13466453552246 C 13.38594102859497 21.299278736114502 13.204779624938965 21.12868595123291 13.745870590209961 21.755733489990234 L 14.35482931137085 22.664766311645508 L 9.592195987701416 22.69613027572632 L 9.859281778335571 22.2457594871521 C 10.845369815826416 21.914053916931152 10.735666036605835 21.902353763580322 10.72342300415039 18.557011127471924 L 10.815880537033081 15.385419845581055 C 10.72807502746582 14.127918720245361 10.71361255645752 13.700079917907715 10.03317403793335 13.730792999267578 C 8.89487886428833 13.934367656707764 9.138041496276855 14.362485408782959 8.953835248947144 15.342513084411621 L 8.921136617660522 20.32613468170166 C 8.677485466003418 21.45501136779785 8.972927570343018 22.448410034179688 9.099403381347656 22.236449718475342 L 9.242176294326782 22.68916654586792 L 5.700534224510193 22.686256885528564 L 5.898727655410767 21.92927598953247 C 6.431970834732056 21.888088703155518 6.422346353530884 21.523869037628174 6.490480184555054 20.84579086303711 L 6.502206802368164 13.967761516571045 C 6.319429636001587 12.54471731185913 5.505290150642395 12.726908683776855 6.194298505783081 12.10797929763794 L 6.050117254257202 12.14686632156372 L 8.318867683410645 11.764958381652832 L 8.510613441467285 13.096411228179932 C 8.482915878295898 12.512449264526367 10.175118684768677 11.771161079406738 10.85506296157837 11.652124643325806 " fill="none" stroke="black" stroke-width="0.3"></path></svg>
