<svg xmlns="http://www.w3.org/2000/svg" xmlns:xlink="http://www.w3.org/1999/xlink" width="50px" height="50px" style="-ms-transform: rotate(360deg); -webkit-transform: rotate(360deg); transform: rotate(360deg);" preserveAspectRatio="xMidYMid meet" viewBox="0 0 24 24"><path d="M 13.102190494537354 11.553350687026978 C 14.777741432189941 11.677546262741089 15.561717510223389 12.752274513244629 15.530596733093262 14.780889987945557 L 15.491071701049805 20.835489749908447 C 15.419837951660156 21.232388019561768 15.695473194122314 21.473630905151367 16.070684909820557 21.73925256729126 L 16.09608793258667 22.68943977355957 L 12.559998035430908 22.68653154373169 L 12.506964683532715 22.16124200820923 C 12.55512285232544 21.615325927734375 13.038069248199463 21.714301586151123 12.955902099609375 20.432548999786377 L 12.927919864654541 15.67769193649292 C 12.737814903259277 14.411447525024414 12.95685338973999 14.036922454833984 12.162468910217285 13.882246971130371 C 10.950724840164185 14.07332468032837 11.191347599029541 14.121766090393066 11.019293546676636 15.410635471343994 L 11.005823135375977 21.187399864196777 C 11.134111404418945 21.787060260772705 11.380642175674438 21.524733066558838 11.433063268661499 22.19604206085205 L 11.565747499465942 22.68727397918701 L 7.852374315261841 22.6843843460083 L 7.833035230636597 21.85524559020996 C 8.296176195144653 21.10471200942993 8.555811166763306 22.113540172576904 8.443057537078857 19.66271209716797 L 8.540044784545898 14.028047561645508 C 8.333016157150269 12.958089351654053 7.512394666671753 12.610389232635498 7.847636461257935 12.043614864349365 L 8.348392724990845 11.840598106384277 L 10.916964769363403 11.826878786087036 L 10.761327266693115 13.35785722732544 C 10.899529695510864 12.434309005737305 12.669332027435303 11.439263820648193 13.102190494537354 11.553350687026978 " fill="none" stroke="black" stroke-width="0.3"></path></svg>
