<svg xmlns="http://www.w3.org/2000/svg" xmlns:xlink="http://www.w3.org/1999/xlink" width="50px" height="50px" style="-ms-transform: rotate(360deg); -webkit-transform: rotate(360deg); transform: rotate(360deg);" preserveAspectRatio="xMidYMid meet" viewBox="0 0 24 24"><path d="M 13.057939052581787 11.451667070388794 C 15.009045124053955 11.743098020553589 16.018773078918457 13.5811128616333 15.98413610458374 17.297751903533936 C 15.902187824249268 21.043368816375732 14.48636770248413 23.269354820251465 12.137443542480469 22.908825874328613 C 12.375776767730713 22.86073637008667 11.744502067565918 22.767322540283203 10.844060897827148 22.182241916656494 L 10.722162008285522 27.488439559936523 L 12.092220783233643 27.580833435058594 L 12.0892653465271 28.67431926727295 L 7.906106472015381 28.664603233337402 L 7.901611089706421 27.745891571044922 L 8.340555667877197 27.941659927368164 L 8.65730881690979 13.598957061767578 L 7.932039499282837 12.414866924285889 L 8.051020860671997 11.87201714515686 L 10.905806064605713 11.746640682220459 L 10.77475619316101 12.867127418518066 C 11.250412702560425 12.059496402740479 12.43392276763916 11.387348413467407 13.057939052581787 11.451667070388794 M 11.547014951705933 13.922555923461914 C 11.805439710617065 14.13339900970459 11.116209268569946 13.335833072662354 11.041330575942993 15.287824630737305 L 11.092049360275269 19.270527362823486 C 11.180105924606323 21.04815673828125 11.647795915603638 21.112545490264893 11.850462198257446 20.999626636505127 C 12.694952487945557 21.31746196746826 13.375330924987793 19.62792205810547 13.18678092956543 16.572529792785645 C 13.199606895446777 13.585716247558594 12.157400608062744 13.455220699310303 11.547014951705933 13.922555923461914 " fill="none" stroke="black" stroke-width="0.3"></path></svg>
