<svg xmlns="http://www.w3.org/2000/svg" xmlns:xlink="http://www.w3.org/1999/xlink" width="50px" height="50px" style="-ms-transform: rotate(360deg); -webkit-transform: rotate(360deg); transform: rotate(360deg);" preserveAspectRatio="xMidYMid meet" viewBox="0 0 24 24"><path d="M 11.484610319137573 11.62581753730774 C 12.160171508789062 11.388937711715698 13.166297435760498 12.366439819335938 13.81253957748413 12.221630573272705 L 13.615658283233643 12.408443927764893 L 14.333740711212158 11.790148973464966 L 15.720790386199951 11.865670680999756 L 15.594650745391846 13.13173770904541 L 15.426199436187744 28.099611282348633 L 15.968846797943115 27.906792640686035 L 15.962798595428467 28.689356803894043 L 12.02122449874878 28.68006134033203 L 12.019665241241455 28.035696029663086 L 12.744884490966797 28.113730430603027 L 12.929669380187988 22.167516231536865 C 11.892743110656738 22.40886640548706 11.635833263397217 23.131597995758057 11.440715789794922 22.836612224578857 C 9.637773513793945 23.027259349822998 8.235262870788574 21.264232635498047 8.226339340209961 17.75707769393921 C 8.085251569747925 14.406015872955322 9.289986848831177 11.90496039390564 11.484610319137573 11.62581753730774 M 11.72093653678894 13.417439460754395 C 11.053238868713379 13.630697250366211 10.899441719055176 15.550559520721436 10.948848724365234 18.799816131591797 C 11.0728440284729 20.993913173675537 11.538318157196045 20.976624011993408 13.297991752624512 20.99443244934082 C 10.834535837173462 20.97551679611206 11.921612977981567 21.74392318725586 12.896188259124756 20.107280731201172 L 12.986233234405518 16.300699710845947 C 12.935969352722168 13.708864688873291 12.848642349243164 13.42662763595581 11.72093653678894 13.417439460754395 " fill="none" stroke="black" stroke-width="0.3"></path></svg>
