<svg xmlns="http://www.w3.org/2000/svg" xmlns:xlink="http://www.w3.org/1999/xlink" width="50px" height="50px" style="-ms-transform: rotate(360deg); -webkit-transform: rotate(360deg); transform: rotate(360deg);" preserveAspectRatio="xMidYMid meet" viewBox="0 0 24 24"><path d="M 11.995251417160034 11.854804515838623 C 12.237287521362305 11.551154851913452 14.687376022338867 12.429811477661133 14.654962062835693 12.861433982849121 L 14.54272985458374 14.74040937423706 L 13.994316101074219 14.760908603668213 C 13.344998359680176 14.209027290344238 12.703389644622803 12.950953960418701 11.61426043510437 13.32372236251831 C 11.477669477462769 13.30947732925415 11.255585432052612 13.86531400680542 11.346803426742554 14.420960426330566 C 11.260804653167725 14.572876453399658 11.624369144439697 15.067068099975586 12.33102035522461 15.71285104751587 C 13.39859390258789 16.65269136428833 15.007079601287842 17.834893226623535 15.082906723022461 19.372567176818848 C 15.216526508331299 21.500548839569092 13.574156284332275 23.589205741882324 10.978694200515747 22.941614627838135 C 9.134859323501587 21.99218988418579 8.616118669509888 23.43222427368164 9.191149950027466 19.55620050430298 L 9.861496210098267 19.348088264465332 L 10.879480361938477 21.121511936187744 C 11.535744667053223 21.50403070449829 12.020775318145752 21.40517234802246 11.161490678787231 21.337949752807617 C 12.103740692138672 21.53331470489502 12.532912731170654 21.327843189239502 12.700764656066895 20.380309581756592 C 12.730563640594482 19.532001972198486 12.076523780822754 19.07367181777954 11.153459787368774 18.34054470062256 C 10.452376127243042 17.20643377304077 9.099984169006348 16.990947246551514 9.11478066444397 14.485539436340332 C 9.009108781814575 13.284553527832031 10.598644495010376 11.420503377914429 11.995251417160034 11.854804515838623 " fill="none" stroke="black" stroke-width="0.3"></path></svg>
