<svg xmlns="http://www.w3.org/2000/svg" xmlns:xlink="http://www.w3.org/1999/xlink" width="50px" height="50px" style="-ms-transform: rotate(360deg); -webkit-transform: rotate(360deg); transform: rotate(360deg);" preserveAspectRatio="xMidYMid meet" viewBox="0 0 24 24"><path d="M 7.955273151397705 11.88218379020691 L 11.086087703704834 11.829226970672607 L 11.073426961898804 19.484830856323242 C 11.363783597946167 20.342495441436768 10.891391515731812 20.98434591293335 12.271655559539795 20.79151439666748 C 12.893985271453857 20.80179262161255 12.906997203826904 20.214929580688477 12.9012451171875 19.12981939315796 L 12.892561912536621 13.946033477783203 L 12.50416088104248 13.052910804748535 L 12.490764141082764 12.07053279876709 L 15.502341270446777 11.961071491241455 L 15.499853610992432 19.74809503555298 L 15.4266357421875 20.48018503189087 L 15.47294569015503 20.639714241027832 L 16.095285415649414 22.675259113311768 L 13.214635848999023 22.690112113952637 L 13.103383541107178 21.536378860473633 C 12.826372146606445 22.540283203125 11.12661337852478 23.097610473632812 10.554375886917114 22.848047733306885 C 9.130420446395874 22.70727825164795 8.48218560218811 21.4844913482666 8.512295722961426 19.600004196166992 L 8.588607788085938 13.78804063796997 C 8.467115879058838 13.235517024993896 7.911126136779785 13.087949752807617 7.714525938034058 12.287753105163574 L 7.955273151397705 11.88218379020691 " fill="none" stroke="black" stroke-width="0.3"></path></svg>
