<svg xmlns="http://www.w3.org/2000/svg" xmlns:xlink="http://www.w3.org/1999/xlink" width="50px" height="50px" style="-ms-transform: rotate(360deg); -webkit-transform: rotate(360deg); transform: rotate(360deg);" preserveAspectRatio="xMidYMid meet" viewBox="0 0 24 24"><path d="M 5.976749539375305 12.288472652435303 L 9.159314632415771 12.147181034088135 L 8.984382390975952 12.154812812805176 L 9.019721746444702 12.909597873687744 C 8.820219039916992 13.779913902282715 9.242837905883789 13.14797830581665 10.038015604019165 18.368276596069336 L 11.253969669342041 12.87619686126709 L 11.014747381210327 14.063013553619385 L 10.744032382965088 12.208627223968506 L 13.110324382781982 12.140524864196777 L 13.040825843811035 12.13192892074585 L 13.092066764831543 12.933860778808594 C 13.453468322753906 15.051335334777832 14.628906726837158 17.448636531829834 14.015511989593506 19.560802459716797 C 14.26655101776123 16.724727630615234 15.418564796447754 14.402801513671875 15.110730171203613 13.678115844726562 C 14.806044101715088 13.341786861419678 14.639475345611572 13.196873188018799 14.669905185699463 13.024960041046143 L 14.518386840820312 12.19057559967041 L 17.613810539245605 12.184661865234375 L 17.41671895980835 12.687935829162598 C 17.482197761535645 13.539590835571289 17.173521995544434 12.534154415130615 16.592795848846436 14.749631881713867 L 14.821529388427734 22.702054023742676 L 13.367860794067383 22.7764892578125 C 12.763815879821777 20.90135908126831 12.083305835723877 18.292114734649658 11.721436500549316 17.151184558868408 L 9.945059537887573 24.428770065307617 L 9.414985656738281 23.990017890930176 C 8.117921590805054 20.489018440246582 7.646976470947266 17.10868263244629 6.992254972457886 14.046067714691162 C 6.756877899169922 13.43955659866333 6.452536582946777 13.327836513519287 6.040035724639893 12.986834049224854 L 5.976749539375305 12.288472652435303 " fill="none" stroke="black" stroke-width="0.3"></path></svg>
