<svg xmlns="http://www.w3.org/2000/svg" xmlns:xlink="http://www.w3.org/1999/xlink" width="50px" height="50px" style="-ms-transform: rotate(360deg); -webkit-transform: rotate(360deg); transform: rotate(360deg);" preserveAspectRatio="xMidYMid meet" viewBox="0 0 24 24"><path d="M 7.846705913543701 12.135334968566895 L 10.962549448013306 12.0099778175354 L 11.564729690551758 12.313736915588379 L 11.176875829696655 13.105815410614014 L 12.342804908752441 15.232679843902588 L 13.091644763946533 13.529414176940918 L 12.823911666870117 12.69982624053955 L 12.81873607635498 12.284517288208008 L 15.81963586807251 12.278157234191895 L 15.617400169372559 12.865641117095947 L 14.903270244598389 13.431601524353027 C 14.720641136169434 13.575486660003662 13.706130981445312 15.625280857086182 13.063582420349121 16.859039783477783 L 15.152233600616455 21.128804683685303 L 15.879778861999512 21.891762256622314 L 16.056950569152832 22.693880081176758 L 12.1511549949646 22.677073001861572 L 12.156804084777832 22.22535753250122 L 12.688151836395264 21.73835277557373 C 12.096925735473633 20.11346197128296 11.553290605545044 19.244389057159424 11.62809133529663 19.170594692230225 C 11.326013803482056 19.651358127593994 10.375009775161743 21.279297351837158 10.547636032104492 21.672975540161133 L 10.932765483856201 22.502145767211914 L 10.902962923049927 22.72499656677246 L 7.930404424667358 22.763400077819824 L 8.089007377624512 21.96657943725586 L 8.748531818389893 21.41978359222412 C 9.64922547340393 19.391283988952637 10.595377206802368 17.87294912338257 10.71570897102356 17.3576717376709 L 8.86481237411499 13.740576267242432 L 8.406073808670044 13.242578029632568 L 7.846705913543701 12.135334968566895 " fill="none" stroke="black" stroke-width="0.3"></path></svg>
