<svg xmlns="http://www.w3.org/2000/svg" xmlns:xlink="http://www.w3.org/1999/xlink" width="50px" height="50px" style="-ms-transform: rotate(360deg); -webkit-transform: rotate(360deg); transform: rotate(360deg);" preserveAspectRatio="xMidYMid meet" viewBox="0 0 24 24"><path d="M 7.594812870025635 11.990821123123169 L 11.108002424240112 11.86091136932373 L 11.462704181671143 12.172924518585205 L 10.936693668365479 13.108640670776367 L 12.201024055480957 17.913803100585938 L 13.648528575897217 13.860756397247314 L 12.977175235748291 13.066266059875488 L 12.881478309631348 11.889074563980103 L 16.205883979797363 11.863884687423706 L 15.884279251098633 13.203166007995605 C 15.258790969848633 13.358160495758057 15.119080066680908 14.221156597137451 15.380169868469238 13.249114036560059 L 12.272870063781738 24.21547222137451 C 11.587632894515991 26.067755699157715 10.320942878723145 28.29953098297119 8.799074649810791 28.334418296813965 C 7.826234579086304 28.356719970703125 6.979900360107422 27.781179428100586 7.21228551864624 26.45361042022705 C 7.350617408752441 25.663344383239746 7.856894016265869 24.903196334838867 8.334882974624634 24.863479614257812 C 8.8283851146698 24.82247257232666 9.153920888900757 25.362793922424316 9.310290098190308 25.54448890686035 C 9.497471809387207 25.76198959350586 9.709129571914673 25.91692543029785 9.658195495605469 26.92584800720215 C 8.985386610031128 23.73631238937378 11.026820182800293 24.000969886779785 10.962210416793823 22.82338857650757 C 11.159866333007812 22.13082790374756 9.750820398330688 18.89311981201172 8.665560722351074 13.846239566802979 L 7.752771377563477 12.806071758270264 L 7.594812870025635 11.990821123123169 " fill="none" stroke="black" stroke-width="0.3"></path></svg>
