<svg xmlns="http://www.w3.org/2000/svg" xmlns:xlink="http://www.w3.org/1999/xlink" width="50px" height="50px" style="-ms-transform: rotate(360deg); -webkit-transform: rotate(360deg); transform: rotate(360deg);" preserveAspectRatio="xMidYMid meet" viewBox="0 0 24 24"><path d="M 8.111275434494019 5.723361253738403 L 13.535127639770508 5.707725763320923 C 15.340385913848877 5.650278925895691 17.989505767822266 7.036364793777466 17.65756845474243 10.0636146068573 C 17.6190505027771 11.757325172424316 16.42626714706421 13.257409572601318 14.544134616851807 13.797037124633789 C 15.902857303619385 13.84068489074707 17.441941738128662 14.883736610412598 17.537896156311035 17.655949115753174 C 17.41813087463379 20.484838485717773 15.54772138595581 22.396493911743164 11.865182161331177 22.688854694366455 L 6.560561656951904 22.68308973312378 L 8.111275434494019 5.723361253738403 M 11.905027627944946 8.72732663154602 L 11.779942274093628 9.413118839263916 L 11.427245378494263 12.61119031906128 L 11.21653962135315 12.420587539672852 C 12.57538890838623 12.180822372436523 13.588977813720703 12.05905294418335 13.614282131195068 10.024558782577515 C 13.616729736328125 9.424743890762329 12.957890510559082 8.547911882400513 11.905027627944946 8.72732663154602 M 11.190992832183838 15.327681541442871 L 11.182081460952759 15.85107421875 L 10.894328355789185 19.506996631622314 L 10.113123893737793 19.342135906219482 C 12.541229724884033 19.18952465057373 13.079210758209229 19.07314682006836 13.368490219116211 17.55983591079712 C 13.29382610321045 15.822409629821777 12.941961765289307 15.439586162567139 11.190992832183838 15.327681541442871 " fill="none" stroke="black" stroke-width="0.3"></path></svg>
