<svg xmlns="http://www.w3.org/2000/svg" xmlns:xlink="http://www.w3.org/1999/xlink" width="50px" height="50px" style="-ms-transform: rotate(360deg); -webkit-transform: rotate(360deg); transform: rotate(360deg);" preserveAspectRatio="xMidYMid meet" viewBox="0 0 24 24"><path d="M 13.498045921325684 5.462808609008789 C 14.120585918426514 5.257879614830017 16.615699768066406 5.860928535461426 17.572679042816162 7.0607757568359375 L 17.167616844177246 10.156604290008545 C 14.597066402435303 9.806169748306274 14.448562145233154 8.704986333847046 13.364111423492432 9.006561040878296 C 11.767837285995483 8.964532613754272 10.474102020263672 11.473699808120728 10.385876655578613 15.103477478027344 C 10.517362117767334 17.363986015319824 10.60520052909851 19.16039800643921 12.566529750823975 19.32800817489624 C 13.478575229644775 19.266880989074707 13.364280223846436 18.959026336669922 13.524659156799316 18.41971778869629 L 13.663192749023438 16.003533840179443 L 12.20451307296753 15.908424854278564 L 12.447518348693848 13.057210922241211 L 18.157733917236328 12.898266792297363 L 17.30587148666382 19.30236053466797 C 16.63840913772583 22.491212368011475 15.002483367919922 22.495905876159668 12.41169548034668 22.99458074569702 C 8.287867784500122 22.990068912506104 5.643428564071655 20.278696060180664 6.18525767326355 13.686532974243164 C 6.7866339683532715 9.850196599960327 8.978705406188965 5.278526186943054 13.498045921325684 5.462808609008789 " fill="none" stroke="black" stroke-width="0.3"></path></svg>
