<svg xmlns="http://www.w3.org/2000/svg" xmlns:xlink="http://www.w3.org/1999/xlink" width="50px" height="50px" style="-ms-transform: rotate(360deg); -webkit-transform: rotate(360deg); transform: rotate(360deg);" preserveAspectRatio="xMidYMid meet" viewBox="0 0 24 24"><path d="M 12.804226398468018 5.415812373161316 C 15.965991497039795 5.423182368278503 18.475861072540283 8.234687805175781 18.375829696655273 12.949210166931152 C 18.248907566070557 18.376715183258057 16.971078872680664 19.651109218597412 15.483332633972168 21.157329082489014 C 14.88442611694336 21.74639081954956 17.283074855804443 22.61005926132202 16.906269550323486 22.764262676239014 L 16.913907051086426 25.874876976013184 C 16.979557514190674 25.463911056518555 15.945661067962646 25.57657814025879 14.852828979492188 25.990599632263184 C 13.692558288574219 26.131650924682617 12.905387878417969 23.99126672744751 12.806440830230713 22.860151290893555 C 12.410695552825928 22.81199026107788 10.889836549758911 23.15727424621582 10.086789608001709 22.832273483276367 C 7.1610682010650635 22.070739269256592 5.575968146324158 18.847044467926025 5.806909203529358 14.304340839385986 C 6.340701341629028 8.529258012771606 9.075505256652832 4.984015345573425 12.804226398468018 5.415812373161316 M 12.20075511932373 8.908254146575928 C 10.948149919509888 9.049540042877197 10.465641975402832 11.408337593078613 10.154462814331055 14.822412014007568 C 10.27217960357666 17.7704758644104 10.310571670532227 20.399402618408203 12.706410884857178 19.005436420440674 C 13.3269681930542 18.992239952087402 13.500072956085205 16.76733112335205 13.95395565032959 13.68517541885376 C 14.021763324737549 10.6278076171875 13.824231147766113 8.916407346725464 12.20075511932373 8.908254146575928 " fill="none" stroke="black" stroke-width="0.3"></path></svg>
