<svg xmlns="http://www.w3.org/2000/svg" xmlns:xlink="http://www.w3.org/1999/xlink" width="50px" height="50px" style="-ms-transform: rotate(360deg); -webkit-transform: rotate(360deg); transform: rotate(360deg);" preserveAspectRatio="xMidYMid meet" viewBox="0 0 24 24"><path d="M 7.85213828086853 5.726399660110474 L 13.524962425231934 5.701553821563721 C 15.247042179107666 5.792473196983337 18.135817050933838 7.099920988082886 17.766669273376465 10.759584903717041 C 17.58326482772827 13.095680236816406 15.790977001190186 14.74511432647705 14.90755033493042 15.088826179504395 L 17.64739465713501 22.693279266357422 L 13.106669425964355 22.681424617767334 L 11.494299173355103 16.29430103302002 L 11.038866519927979 15.789357662200928 L 10.51411485671997 22.686039447784424 L 6.379326581954956 22.691007614135742 C 6.78337025642395 17.16873550415039 7.359532356262207 12.415095806121826 7.85213828086853 5.726399660110474 M 11.326606035232544 8.81290054321289 L 11.674780368804932 8.659602642059326 L 11.150389909744263 13.088280200958252 C 10.78425121307373 12.61999797821045 10.90932297706604 13.18531322479248 11.698288679122925 12.874212741851807 C 12.847410678863525 12.81318998336792 13.612247943878174 12.050527095794678 13.566035270690918 10.329105377197266 C 13.563490390777588 9.231316566467285 12.718467235565186 8.521501064300537 11.326606035232544 8.81290054321289 " fill="none" stroke="black" stroke-width="0.3"></path></svg>
