<svg xmlns="http://www.w3.org/2000/svg" xmlns:xlink="http://www.w3.org/1999/xlink" width="50px" height="50px" style="-ms-transform: rotate(360deg); -webkit-transform: rotate(360deg); transform: rotate(360deg);" preserveAspectRatio="xMidYMid meet" viewBox="0 0 24 24"><path d="M 12.702232360839844 11.00719141960144 C 14.547689437866211 13.357445240020752 13.420846939086914 11.041035890579224 14.567800998687744 10.95326828956604 L 14.073978424072266 11.081899166107178 L 17.356317043304443 11.079922914505005 L 16.158493995666504 22.690210819244385 L 12.643850326538086 22.68675470352173 L 12.613307476043701 21.24812078475952 C 12.148768901824951 22.29611349105835 11.182326078414917 22.973876953125 9.919886827468872 22.97468662261963 C 7.697673797607422 22.659852504730225 6.769531488418579 20.668583393096924 7.018433332443237 16.63943910598755 C 7.478641033172607 12.778231143951416 9.294817686080933 10.459700345993042 12.702232360839844 11.00719141960144 M 12.736059665679932 13.992918491363525 C 11.739394426345825 13.744105339050293 11.109858512878418 14.837315082550049 10.940769910812378 17.087499618530273 C 10.774619579315186 18.79436159133911 11.142394065856934 19.784069538116455 11.671088933944702 19.70820379257202 C 12.737212657928467 19.344308853149414 12.598865032196045 18.668572425842285 12.931750774383545 17.586251735687256 L 13.036000728607178 15.9708251953125 C 12.937175273895264 14.704655170440674 13.108314514160156 13.932635307312012 12.736059665679932 13.992918491363525 " fill="none" stroke="black" stroke-width="0.3"></path></svg>
