<svg xmlns="http://www.w3.org/2000/svg" xmlns:xlink="http://www.w3.org/1999/xlink" width="50px" height="50px" style="-ms-transform: rotate(360deg); -webkit-transform: rotate(360deg); transform: rotate(360deg);" preserveAspectRatio="xMidYMid meet" viewBox="0 0 24 24"><path d="M 17.699466705322266 5.230570435523987 L 16.097559928894043 22.691061973571777 L 12.515466213226318 22.68473196029663 C 12.358912467956543 20.548343181610107 12.932085514068604 19.983023643493652 12.48598337173462 20.99415636062622 C 12.381980895996094 22.304782390594482 10.782608270645142 23.190864086151123 9.693340301513672 22.888917446136475 C 7.62046480178833 22.474031925201416 6.57294774055481 20.5692400932312 6.8093626499176025 16.967034816741943 C 7.171509504318237 13.368289947509766 8.717137098312378 10.023337125778198 12.71815538406372 11.115259408950806 C 13.603089809417725 11.845168590545654 12.935995101928711 13.517114639282227 13.54433012008667 9.154154062271118 L 13.72758436203003 5.275758504867554 L 17.699466705322266 5.230570435523987 M 11.83852243423462 13.966501235961914 C 11.270713806152344 14.065947532653809 10.75519323348999 15.215998649597168 10.718895435333252 18.08499813079834 C 10.833620309829712 18.824081897735596 10.98713207244873 19.828538417816162 11.631573915481567 19.736487865447998 C 11.875170707702637 19.9181227684021 12.538734912872314 19.497370719909668 12.787399291992188 17.530723571777344 C 12.952418804168701 16.189975261688232 12.915724754333496 14.26966381072998 12.908236026763916 14.659777164459229 C 12.892168521881104 14.20962381362915 13.087393283843994 13.57638931274414 11.83852243423462 13.966501235961914 " fill="none" stroke="black" stroke-width="0.3"></path></svg>
