<svg xmlns="http://www.w3.org/2000/svg" xmlns:xlink="http://www.w3.org/1999/xlink" width="50px" height="50px" style="-ms-transform: rotate(360deg); -webkit-transform: rotate(360deg); transform: rotate(360deg);" preserveAspectRatio="xMidYMid meet" viewBox="0 0 24 24"><path d="M 11.899629592895508 10.755665302276611 C 11.914942502975464 10.615176916122437 13.732991695404053 11.185065507888794 13.595043182373047 12.022184371948242 L 13.999078273773193 10.97983717918396 L 17.199820518493652 11.01708197593689 L 16.08114194869995 23.062035083770752 C 15.165537357330322 26.39436435699463 14.33091402053833 30.16050624847412 10.764654636383057 29.098726272583008 C 8.515117406845093 28.76165199279785 7.246511220932007 28.448481559753418 6.959505558013916 25.809019088745117 L 8.98311710357666 25.256844520568848 C 9.227132320404053 26.13907241821289 9.765518188476562 26.454740524291992 8.446746826171875 24.29074001312256 C 9.89577841758728 24.172616958618164 11.748820781707764 24.77797794342041 12.40748405456543 22.952186107635498 L 12.339902400970459 21.7815899848938 C 11.137020349502563 22.40191125869751 10.922985792160034 22.767509937286377 10.440439939498901 22.648083686828613 C 8.220359802246094 23.027390956878662 6.99334716796875 21.02565622329712 7.097535610198975 17.581825733184814 C 7.195168733596802 13.384002685546875 8.551168441772461 10.849379539489746 11.899629592895508 10.755665302276611 M 12.15066146850586 13.760348796844482 C 11.455678224563599 14.07420015335083 11.076813697814941 15.359192848205566 11.025258779525757 17.666112899780273 C 10.912839889526367 18.7197904586792 11.350126504898071 19.55094051361084 11.34645938873291 19.37127113342285 C 12.079124450683594 19.585132598876953 12.88599443435669 18.717045307159424 13.032357215881348 17.152080059051514 C 13.202113151550293 16.09296226501465 13.188520431518555 13.740745067596436 13.140546798706055 14.292099952697754 C 13.238741397857666 13.711891651153564 12.6910400390625 13.604744911193848 12.15066146850586 13.760348796844482 " fill="none" stroke="black" stroke-width="0.3"></path></svg>
