<svg xmlns="http://www.w3.org/2000/svg" xmlns:xlink="http://www.w3.org/1999/xlink" width="50px" height="50px" style="-ms-transform: rotate(360deg); -webkit-transform: rotate(360deg); transform: rotate(360deg);" preserveAspectRatio="xMidYMid meet" viewBox="0 0 24 24"><path d="M 13.521316051483154 10.961169719696045 C 16.36239194869995 10.57222867012024 17.764341831207275 12.822569847106934 17.17591381072998 17.3742356300354 C 16.95909547805786 21.18149471282959 14.177558898925781 24.47593402862549 10.963212490081787 22.14426040649414 C 10.198104858398438 25.071919441223145 11.636037826538086 24.717252731323242 9.976381301879883 23.993170738220215 L 9.249722957611084 28.930166244506836 L 6.48620867729187 30.17548942565918 L 7.803491592407227 11.18087911605835 L 10.055112361907959 11.183480501174927 L 11.351087093353271 11.175508260726929 C 11.800337076187134 13.67336368560791 10.606641054153442 11.77756118774414 13.521316051483154 10.961169719696045 M 11.911875486373901 14.2114577293396 C 11.399580001831055 14.439837455749512 11.458384037017822 15.317087173461914 11.261961221694946 16.73091745376587 L 11.153819561004639 21.082808017730713 C 10.29421591758728 18.514710903167725 11.391031265258789 18.458670616149902 11.331928253173828 19.363253116607666 C 12.4714937210083 20.10921621322632 13.228832244873047 18.76073169708252 13.30781364440918 17.240837574005127 C 13.436872959136963 14.921623706817627 13.391199588775635 13.607470035552979 11.911875486373901 14.2114577293396 " fill="none" stroke="black" stroke-width="0.3"></path></svg>
