<svg xmlns="http://www.w3.org/2000/svg" xmlns:xlink="http://www.w3.org/1999/xlink" width="50px" height="50px" style="-ms-transform: rotate(360deg); -webkit-transform: rotate(360deg); transform: rotate(360deg);" preserveAspectRatio="xMidYMid meet" viewBox="0 0 24 24"><path d="M 13.493710041046143 10.851784229278564 C 13.59226655960083 10.897963285446167 15.583675861358643 11.100846290588379 15.87169075012207 11.636176586151123 L 15.292150497436523 13.891536712646484 C 14.927490234375 14.417587280273438 14.25424575805664 13.417742729187012 12.913185596466064 13.423025608062744 C 12.6428861618042 13.651029109954834 12.279348850250244 14.149781227111816 12.169050693511963 14.383184909820557 C 12.292737007141113 14.592473030090332 12.56145429611206 15.173213481903076 13.065007209777832 15.23671817779541 C 14.25033187866211 16.068061351776123 15.86379861831665 16.87964630126953 15.682107925415039 19.258252143859863 C 15.352588176727295 21.818939208984375 13.449345588684082 22.828353881835938 11.115908145904541 22.98281478881836 C 9.373754739761353 22.733500957489014 8.05107593536377 22.48495101928711 8.16536021232605 21.8107852935791 L 8.708844423294067 19.53685426712036 C 8.737792253494263 19.395286560058594 10.280294179916382 19.86575174331665 10.77569031715393 20.017202854156494 C 11.99560832977295 19.756542205810547 12.126392841339111 19.81367826461792 11.776272296905518 18.81867742538452 C 11.519991874694824 18.514519214630127 10.946892499923706 18.203875064849854 10.423847436904907 17.93443536758423 C 9.095834970474243 16.947774410247803 8.470938205718994 16.047429084777832 8.800387144088745 14.018643379211426 C 9.372660398483276 11.669463157653809 11.245633363723755 11.016691446304321 13.493710041046143 10.851784229278564 " fill="none" stroke="black" stroke-width="0.3"></path></svg>
