<svg xmlns="http://www.w3.org/2000/svg" xmlns:xlink="http://www.w3.org/1999/xlink" width="50px" height="50px" style="-ms-transform: rotate(360deg); -webkit-transform: rotate(360deg); transform: rotate(360deg);" preserveAspectRatio="xMidYMid meet" viewBox="0 0 24 24"><path d="M 10.420473575592041 5.764079332351685 L 13.653018951416016 5.676743030548096 L 16.82260751724243 20.684207439422607 L 17.02856969833374 21.576913833618164 L 17.237637519836426 22.688295364379883 L 13.643896579742432 22.688838958740234 L 13.542743682861328 22.335212230682373 L 13.172668933868408 19.88846254348755 L 13.133593082427979 19.693937301635742 L 12.976381301879883 19.15120553970337 L 10.184563636779785 19.280463695526123 L 9.67697811126709 21.632875442504883 L 9.647372961044312 22.232454299926758 L 9.639327764511108 21.927412033081055 C 9.498658418655396 22.968953132629395 9.78793716430664 22.63129949569702 8.563508033752441 22.692461013793945 C 7.274348258972168 22.672934532165527 6.156312704086304 22.676546573638916 6.450061082839966 22.731365203857422 L 6.581796884536743 22.225740909576416 C 7.039544105529785 20.65735673904419 7.329025983810425 19.814284801483154 7.013939380645752 21.161705017089844 C 7.887848138809204 16.674439430236816 9.254437923431396 11.681058168411255 10.420473575592041 5.764079332351685 M 11.82081127166748 9.745832204818726 C 11.351508378982544 13.151690483093262 10.11329984664917 16.923903465270996 10.770533323287964 16.607344150543213 L 12.581801891326904 16.521122932434082 C 12.817623138427734 16.304420471191406 11.738281488418579 12.939438343048096 11.82081127166748 9.745832204818726 " fill="none" stroke="black" stroke-width="0.3"></path></svg>
