<svg xmlns="http://www.w3.org/2000/svg" xmlns:xlink="http://www.w3.org/1999/xlink" width="50px" height="50px" style="-ms-transform: rotate(360deg); -webkit-transform: rotate(360deg); transform: rotate(360deg);" preserveAspectRatio="xMidYMid meet" viewBox="0 0 24 24"><path d="M 8.80268383026123 5.427723526954651 L 11.663339138031006 5.433014631271362 C 14.313720703125 5.620051145553589 16.5400071144104 6.516475439071655 16.429294109344482 10.084370613098145 C 16.56708526611328 11.346688985824585 15.208670139312744 13.512279510498047 13.456319332122803 13.673576831817627 C 15.505117893218994 13.765086650848389 16.787060737609863 15.687496662139893 16.78510808944702 17.967453002929688 C 16.61625623703003 21.188514232635498 15.049465656280518 22.311318397521973 11.96610689163208 22.694121837615967 L 7.213881254196167 22.67567539215088 L 7.646683931350708 20.68492555618286 L 7.620158672332764 17.166433811187744 L 7.730670690536499 7.5451977252960205 C 7.626093149185181 6.250096321105957 7.281980037689209 6.0392396450042725 7.467214107513428 5.432664513587952 L 8.80268383026123 5.427723526954651 M 10.142613172531128 7.589823246002197 L 11.006423234939575 7.345324516296387 L 10.963665962219238 11.626768827438354 L 10.851856470108032 12.496991157531738 C 12.591060161590576 12.764697074890137 13.086407661437988 11.606507062911987 13.095943450927734 9.894910097122192 C 12.751698017120361 7.858825922012329 12.579331398010254 8.05871057510376 10.142613172531128 7.589823246002197 M 9.844001054763794 14.9046950340271 L 10.902168989181519 14.264880180358887 L 10.912762641906738 18.657824993133545 C 10.965612173080444 18.36318826675415 10.777291774749756 19.078132152557373 10.962559461593628 20.255104064941406 C 12.98043966293335 20.449955463409424 13.49831771850586 18.996158123016357 13.339389324188232 17.049561023712158 C 12.754370212554932 14.694896221160889 11.650593996047974 14.64859914779663 9.844001054763794 14.9046950340271 " fill="none" stroke="black" stroke-width="0.3"></path></svg>
