<svg xmlns="http://www.w3.org/2000/svg" xmlns:xlink="http://www.w3.org/1999/xlink" width="50px" height="50px" style="-ms-transform: rotate(360deg); -webkit-transform: rotate(360deg); transform: rotate(360deg);" preserveAspectRatio="xMidYMid meet" viewBox="0 0 24 24"><path d="M 8.110361337661743 5.456040143966675 L 11.279914140701294 5.576820015907288 C 15.024860858917236 5.778900861740112 17.227588176727295 8.363766431808472 17.27248191833496 14.150659561157227 C 17.029844284057617 19.389281272888184 15.17649507522583 22.355916023254395 11.124390363693237 22.703860759735107 L 6.82607889175415 22.66933536529541 L 7.270923614501953 20.937857151031494 L 7.26164174079895 17.676190853118896 L 7.491779565811157 7.63202691078186 C 7.321123123168945 5.932434439659119 6.726139783859253 5.916178464889526 7.225600004196167 5.519700050354004 L 8.110361337661743 5.456040143966675 M 10.395471811294556 8.144397497177124 C 10.285253763198853 7.449735403060913 9.986709594726562 7.436197757720947 10.816110849380493 7.382803916931152 L 10.719749450683594 17.58084726333618 C 10.783337831497192 19.3084716796875 10.692089080810547 20.765120029449463 10.966687202453613 20.137845039367676 C 13.283712387084961 19.988297939300537 13.684837818145752 16.741310119628906 13.588189601898193 13.009393215179443 C 13.13541841506958 9.304857015609741 12.655815124511719 7.703835725784302 10.395471811294556 8.144397497177124 " fill="none" stroke="black" stroke-width="0.3"></path></svg>
