<svg xmlns="http://www.w3.org/2000/svg" xmlns:xlink="http://www.w3.org/1999/xlink" width="50px" height="50px" style="-ms-transform: rotate(360deg); -webkit-transform: rotate(360deg); transform: rotate(360deg);" preserveAspectRatio="xMidYMid meet" viewBox="0 0 24 24"><path d="M 8.700247764587402 5.347456097602844 L 15.868020057678223 5.466912031173706 L 15.796663284301758 8.37479281425476 L 15.61821985244751 8.400966167449951 L 14.421851634979248 7.859411716461182 L 11.944024801254272 7.691459655761719 L 11.856820821762085 12.595527648925781 L 12.5839262008667 12.643642902374268 C 13.880797863006592 12.585286617279053 14.817712783813477 12.627030372619629 14.745283126831055 12.54931926727295 L 14.995199203491211 12.595802307128906 L 14.942397594451904 15.15412187576294 L 13.886690139770508 15.217240333557129 C 12.525207996368408 15.254091739654541 12.115066051483154 15.11164140701294 11.397652387619019 15.003069877624512 L 11.80154800415039 14.679499626159668 L 11.808006048202515 19.844003677368164 C 11.696906089782715 20.51352596282959 12.311239242553711 20.106956005096436 13.403244495391846 20.16952657699585 C 13.683475971221924 20.64857053756714 12.323033809661865 20.70169973373413 12.44124984741211 20.154919624328613 C 13.384612083435059 20.202931880950928 15.12758731842041 20.147526741027832 15.340639114379883 19.781757831573486 L 15.890633583068848 19.605817794799805 C 16.123756885528564 20.185958862304688 15.778707504272461 22.18745470046997 15.925862789154053 22.68905782699585 L 8.080186128616333 22.687053680419922 L 8.138468742370605 21.8770694732666 C 8.532407999038696 21.593064308166504 8.431913137435913 20.64235496520996 8.444161891937256 18.856050968170166 L 8.681881427764893 7.459179639816284 C 8.468012809753418 6.083505392074585 8.158407211303711 5.316798806190491 8.28560757637024 5.6235880851745605 L 8.700247764587402 5.347456097602844 " fill="none" stroke="black" stroke-width="0.3"></path></svg>
