<svg xmlns="http://www.w3.org/2000/svg" xmlns:xlink="http://www.w3.org/1999/xlink" width="50px" height="50px" style="-ms-transform: rotate(360deg); -webkit-transform: rotate(360deg); transform: rotate(360deg);" preserveAspectRatio="xMidYMid meet" viewBox="0 0 24 24"><path d="M 8.708004713058472 5.341297030448914 L 16.05586338043213 5.497785687446594 L 15.951659202575684 8.462559700012207 L 15.724379539489746 8.567684412002563 C 15.174488067626953 7.945155143737793 14.493730545043945 7.903799772262573 13.352893352508545 7.761057615280151 L 12.055901527404785 7.727874755859375 L 11.957924365997314 12.687453746795654 L 15.10094404220581 12.516381740570068 C 15.220737934112549 12.878289699554443 15.210139274597168 11.979536533355713 15.232359409332275 11.744771003723145 L 15.257746696472168 11.449092149734497 L 15.018772602081299 15.16411542892456 L 11.907848596572876 15.193077564239502 C 11.807370901107788 14.790352821350098 11.66500997543335 14.021334171295166 11.313283681869507 13.976773738861084 L 12.025023937225342 13.706361293792725 L 11.919731855392456 18.071375370025635 C 11.956895112991333 21.062517642974854 12.022274494171143 20.73872995376587 12.183799266815186 21.250123500823975 L 12.339157104492188 22.686574459075928 L 8.265851497650146 22.688625812530518 L 8.34831690788269 22.46249485015869 C 8.513168334960938 21.41674518585205 8.769897222518921 21.414331912994385 8.659478187561035 19.26330041885376 L 8.816034078598022 7.9429357051849365 C 8.774630069732666 5.55201530456543 8.537375450134277 6.5180017948150635 8.416235446929932 5.630410552024841 L 8.708004713058472 5.341297030448914 " fill="none" stroke="black" stroke-width="0.3"></path></svg>
