<svg xmlns="http://www.w3.org/2000/svg" xmlns:xlink="http://www.w3.org/1999/xlink" width="50px" height="50px" style="-ms-transform: rotate(360deg); -webkit-transform: rotate(360deg); transform: rotate(360deg);" preserveAspectRatio="xMidYMid meet" viewBox="0 0 24 24"><path d="M 7.7068870067596436 5.620561122894287 L 11.248716831207275 5.503971219062805 L 11.052826166152954 6.643778085708618 L 11.003535032272339 7.823462963104248 L 10.895586490631104 12.779524326324463 L 12.775026798248291 8.092126607894897 C 12.93495512008667 8.514359951019287 12.818823337554932 8.815298080444336 12.695032596588135 8.415936470031738 L 13.452057838439941 6.413603782653809 L 13.521670818328857 5.497443079948425 L 17.063366889953613 5.542983055114746 L 17.314939498901367 5.749517440795898 C 16.92378330230713 6.924397945404053 16.377621173858643 6.83218789100647 15.638520240783691 8.251418352127075 L 13.598653793334961 12.756866455078125 L 16.35201358795166 19.715296268463135 C 16.8623685836792 20.86524724960327 17.219449996948242 21.325088024139404 17.58357524871826 22.68515110015869 L 13.957666397094727 22.69315767288208 C 13.775007247924805 22.81437635421753 13.270248413085938 20.921203136444092 13.029690742492676 20.425071716308594 C 12.341780662536621 18.345447063446045 11.194802284240723 16.14970350265503 10.920807123184204 14.647387504577637 L 10.833665370941162 20.141006469726562 C 10.819735765457153 21.48209810256958 11.001248359680176 21.74772548675537 10.885336875915527 21.76598596572876 L 11.038209915161133 22.689396858215332 L 7.085352659225464 22.683021068572998 L 7.079091310501099 22.31410503387451 C 7.582638502120972 21.106311321258545 7.476975202560425 20.696921825408936 7.538452863693237 19.599716663360596 L 7.723453044891357 8.191490650177002 C 7.758058547973633 6.706281423568726 7.581435441970825 6.452268362045288 7.263650894165039 5.799879670143127 L 7.7068870067596436 5.620561122894287 " fill="none" stroke="black" stroke-width="0.3"></path></svg>
