<svg xmlns="http://www.w3.org/2000/svg" xmlns:xlink="http://www.w3.org/1999/xlink" width="50px" height="50px" style="-ms-transform: rotate(360deg); -webkit-transform: rotate(360deg); transform: rotate(360deg);" preserveAspectRatio="xMidYMid meet" viewBox="0 0 24 24"><path d="M 6.9545488357543945 5.620063304901123 L 10.493144273757935 5.653678894042969 L 14.101475715637207 14.824610710144043 L 14.234720706939697 8.169813394546509 L 13.761102676391602 5.565673828125 L 13.76469898223877 5.593192934989929 L 16.77306318283081 5.326767683029175 L 17.30249261856079 5.721259117126465 C 16.7838191986084 6.706195592880249 16.83327054977417 7.239284992218018 16.76420259475708 8.813813209533691 L 16.63500738143921 22.684946537017822 L 14.159045219421387 22.69468116760254 C 12.166723251342773 17.920103073120117 10.38767123222351 12.932789325714111 9.856252670288086 12.718477249145508 L 9.919419050216675 18.939087867736816 C 10.003668308258057 20.23869752883911 10.08756709098816 21.005653381347656 10.054837703704834 20.83309507369995 L 10.347945213317871 22.690715789794922 L 6.6726930141448975 22.684882164001465 L 6.701291084289551 21.930182933807373 C 7.0983216762542725 21.249648571014404 7.15430474281311 21.503346920013428 7.228336572647095 19.350736141204834 L 7.366827964782715 8.182499885559082 C 7.370516538619995 6.49299430847168 6.890906810760498 6.918874025344849 6.872679948806763 5.73014223575592 L 6.9545488357543945 5.620063304901123 " fill="none" stroke="black" stroke-width="0.3"></path></svg>
