<svg xmlns="http://www.w3.org/2000/svg" xmlns:xlink="http://www.w3.org/1999/xlink" width="50px" height="50px" style="-ms-transform: rotate(360deg); -webkit-transform: rotate(360deg); transform: rotate(360deg);" preserveAspectRatio="xMidYMid meet" viewBox="0 0 24 24"><path d="M 7.91370964050293 5.33643364906311 L 12.15254259109497 5.358650207519531 C 14.926207065582275 5.576866507530212 17.419016361236572 6.880504131317139 17.173513412475586 11.06853175163269 C 17.049086093902588 13.886594295501709 15.163837909698486 15.545207977294922 12.883453845977783 15.63383960723877 L 11.39989185333252 15.813530445098877 L 11.332603454589844 20.457688808441162 L 11.533867835998535 21.795437335968018 L 11.628061294555664 22.687461376190186 L 7.756673097610474 22.688715934753418 L 7.839003324508667 21.99001121520996 L 7.981784820556641 21.18229866027832 L 8.125236511230469 7.319077491760254 L 7.764625310897827 5.666802406311035 L 7.91370964050293 5.33643364906311 M 11.604167461395264 7.700815916061401 L 11.49329137802124 7.778688669204712 L 11.343090534210205 13.673715591430664 C 11.131139516830444 13.717394828796387 10.99035930633545 13.713372230529785 11.005672931671143 13.225979804992676 C 12.433828353881836 13.486142635345459 13.697227478027344 12.879139423370361 13.743231296539307 10.527799129486084 C 13.686375617980957 8.663325548171997 13.09584903717041 7.913535833358765 11.604167461395264 7.700815916061401 " fill="none" stroke="black" stroke-width="0.3"></path></svg>
