<svg xmlns="http://www.w3.org/2000/svg" xmlns:xlink="http://www.w3.org/1999/xlink" width="50px" height="50px" style="-ms-transform: rotate(360deg); -webkit-transform: rotate(360deg); transform: rotate(360deg);" preserveAspectRatio="xMidYMid meet" viewBox="0 0 24 24"><path d="M 12.434828281402588 5.262683987617493 C 15.247597217559814 5.554387092590332 17.46473264694214 8.834607124328613 17.481136322021484 13.413700103759766 C 17.32660961151123 17.713228225708008 16.44878053665161 19.995152950286865 15.508438110351562 20.90987777709961 C 14.245811462402344 22.25791311264038 15.124156951904297 22.2477765083313 15.657468795776367 22.719247341156006 L 16.08290433883667 22.95985221862793 C 16.247670650482178 23.769431591033936 16.42909812927246 25.19729232788086 14.098026752471924 25.193947792053223 C 13.07027292251587 25.243824005126953 12.350237846374512 23.482566833496094 12.567472457885742 22.42878770828247 C 14.011802673339844 23.082982063293457 12.459497451782227 23.26990842819214 10.607390642166138 22.899305820465088 C 8.029561758041382 22.204187393188477 6.252360105514526 18.271754264831543 6.517908811569214 13.078225135803223 C 7.144781112670898 7.3472900390625 9.095858573913574 4.95643150806427 12.434828281402588 5.262683987617493 M 11.996405124664307 7.655191898345947 C 10.57625126838684 7.578135251998901 10.142774105072021 9.704858779907227 10.090087652206421 14.284189224243164 C 10.151083946228027 17.631488800048828 10.652910232543945 20.928833484649658 12.028173923492432 20.59004259109497 C 13.628399848937988 20.366942882537842 13.460371971130371 18.376646518707275 13.828393936157227 14.345704078674316 C 13.762691974639893 10.234487056732178 13.687910556793213 8.067288637161255 11.996405124664307 7.655191898345947 " fill="none" stroke="black" stroke-width="0.3"></path></svg>
