<svg xmlns="http://www.w3.org/2000/svg" xmlns:xlink="http://www.w3.org/1999/xlink" width="50px" height="50px" style="-ms-transform: rotate(360deg); -webkit-transform: rotate(360deg); transform: rotate(360deg);" preserveAspectRatio="xMidYMid meet" viewBox="0 0 24 24"><path d="M 7.352830410003662 5.430765509605408 L 11.94918966293335 5.449287056922913 C 14.644762516021729 5.750673294067383 16.6057448387146 6.968552827835083 16.644189834594727 10.099700689315796 C 16.848323822021484 12.515832424163818 15.279962539672852 14.062604427337646 14.350477695465088 14.389763832092285 L 16.583404541015625 20.842369079589844 L 17.06777572631836 21.820484161376953 L 17.284207820892334 22.705158233642578 L 13.714788436889648 22.696352005004883 L 11.449039220809937 15.44924783706665 L 10.953989267349243 15.387378215789795 L 10.84713864326477 19.943894863128662 L 11.029267072677612 22.236199378967285 L 11.131371974945068 22.686660289764404 L 7.149142742156982 22.68900203704834 L 7.227240085601807 22.05975866317749 L 7.519150257110596 20.89880132675171 L 7.624117612838745 7.159215688705444 L 7.590188026428223 7.186196565628052 L 7.352830410003662 5.430765509605408 M 11.861545085906982 7.976974725723267 C 11.044157266616821 7.557781219482422 10.71218991279602 8.06512999534607 10.941041707992554 7.827052116394043 L 10.871623277664185 13.595791339874268 C 10.892885684967041 13.581310272216797 10.94515085220337 13.890878677368164 10.473765134811401 12.887955665588379 C 12.280064105987549 13.368292808532715 13.242708206176758 12.503003597259521 13.23405647277832 10.245452642440796 C 13.186121463775635 9.086751937866211 12.893752098083496 8.035294532775879 11.861545085906982 7.976974725723267 " fill="none" stroke="black" stroke-width="0.3"></path></svg>
