<svg xmlns="http://www.w3.org/2000/svg" xmlns:xlink="http://www.w3.org/1999/xlink" width="50px" height="50px" style="-ms-transform: rotate(360deg); -webkit-transform: rotate(360deg); transform: rotate(360deg);" preserveAspectRatio="xMidYMid meet" viewBox="0 0 24 24"><path d="M 12.342475891113281 5.2420971393585205 C 13.081302165985107 5.317923545837402 15.55003309249878 5.772693872451782 15.586934566497803 6.267915487289429 L 15.62114953994751 9.694639921188354 C 14.111304759979248 9.189913988113403 14.330795288085938 8.08593463897705 12.671841144561768 7.595847845077515 C 11.7921302318573 7.440957069396973 11.098340034484863 8.150028705596924 11.070719003677368 9.473266124725342 C 11.139317750930786 10.30017614364624 12.236506462097168 11.817435264587402 13.402487754821777 12.705770015716553 C 14.787689208984375 14.116054058074951 16.378772735595703 15.849301815032959 16.267044067382812 18.170405387878418 C 16.09523105621338 21.101190090179443 14.124943256378174 22.831456661224365 11.207984447479248 22.852792739868164 C 9.793957471847534 22.822726249694824 8.276811361312866 22.181230545043945 8.078620433807373 21.695367336273193 L 8.302734375 18.8700270652771 C 9.811115026473999 18.552547931671143 9.579092502593994 20.14638376235962 11.479230880737305 20.13756036758423 C 12.53371524810791 20.019350051879883 13.148690700531006 19.38832712173462 12.99592924118042 17.959054470062256 C 12.888137340545654 16.756454944610596 11.55234432220459 15.820226669311523 10.92271113395691 15.196151733398438 C 9.472656011581421 13.805731773376465 7.8825201988220215 12.020649433135986 8.039953708648682 9.565479040145874 C 7.975619316101074 6.831863880157471 10.037526369094849 4.970099687576294 12.342475891113281 5.2420971393585205 " fill="none" stroke="black" stroke-width="0.3"></path></svg>
