<svg xmlns="http://www.w3.org/2000/svg" xmlns:xlink="http://www.w3.org/1999/xlink" width="50px" height="50px" style="-ms-transform: rotate(360deg); -webkit-transform: rotate(360deg); transform: rotate(360deg);" preserveAspectRatio="xMidYMid meet" viewBox="0 0 24 24"><path d="M 7.342792510986328 5.398797512054443 L 16.820537567138672 5.776791572570801 L 16.73869228363037 8.695784568786621 L 16.140978813171387 8.512478113174438 C 15.761688709259033 8.02252721786499 13.45929479598999 7.924896955490112 13.464893817901611 8.172656536102295 C 14.71177625656128 7.711955308914185 14.500167846679688 8.08691954612732 13.620092868804932 8.004589319229126 L 13.632977485656738 18.878231048583984 C 13.471698760986328 20.546868324279785 13.691778659820557 21.295196056365967 13.735927104949951 21.482608795166016 L 13.940633296966553 22.68851137161255 C 13.218419551849365 22.687445640563965 11.587977647781372 22.691508293151855 9.92163634300232 22.68425703048706 L 9.911579132080078 22.002422332763672 C 9.971009016036987 21.68430519104004 10.003797054290771 21.55107021331787 10.169817924499512 20.75187063217163 L 10.257359504699707 7.886193037033081 C 10.47391390800476 7.938181400299072 7.360719680786133 8.166141986846924 9.534515619277954 7.808377504348755 C 9.592162370681763 7.710939645767212 7.466872930526733 8.52128291130066 7.3792126178741455 8.486504316329956 L 7.391445636749268 9.775792837142944 L 7.342792510986328 5.398797512054443 " fill="none" stroke="black" stroke-width="0.3"></path></svg>
