<svg xmlns="http://www.w3.org/2000/svg" xmlns:xlink="http://www.w3.org/1999/xlink" width="50px" height="50px" style="-ms-transform: rotate(360deg); -webkit-transform: rotate(360deg); transform: rotate(360deg);" preserveAspectRatio="xMidYMid meet" viewBox="0 0 24 24"><path d="M 7.414072036743164 5.471073389053345 L 11.622517347335815 5.496468544006348 L 11.418074369430542 5.509379982948303 L 11.126214265823364 5.489530920982361 L 10.874354124069214 6.573640823364258 L 10.760102033615112 15.890089988708496 C 10.839162826538086 18.750606536865234 10.511660814285278 19.644651889801025 12.161407470703125 20.38240957260132 C 14.06553840637207 20.139957904815674 13.7630295753479 18.540098190307617 13.872133255004883 16.009174346923828 L 13.859353065490723 8.145142078399658 C 13.847408294677734 5.909376740455627 13.174190998077393 5.730146527290344 13.76653003692627 5.468026757240295 L 13.53956651687622 5.442181348800659 L 17.118053913116455 5.479742646217346 L 16.87444496154785 6.582885503768921 C 16.99822998046875 6.936462163925171 16.797423362731934 7.514126300811768 16.809256553649902 9.173511028289795 L 16.74089241027832 18.40879726409912 C 16.40127182006836 21.535426139831543 15.031569957733154 22.89247226715088 11.82503056526184 22.967000484466553 C 8.832721710205078 22.691957473754883 7.328784227371216 21.11392593383789 7.418449401855469 17.41816520690918 C 7.386820077896118 12.31193733215332 7.56582498550415 9.052268743515015 7.5045061111450195 7.9889209270477295 C 7.601046323776245 7.039871692657471 7.497718334197998 6.717974424362183 7.068960428237915 5.719416260719299 L 7.414072036743164 5.471073389053345 " fill="none" stroke="black" stroke-width="0.3"></path></svg>
