<svg xmlns="http://www.w3.org/2000/svg" xmlns:xlink="http://www.w3.org/1999/xlink" width="50px" height="50px" style="-ms-transform: rotate(360deg); -webkit-transform: rotate(360deg); transform: rotate(360deg);" preserveAspectRatio="xMidYMid meet" viewBox="0 0 24 24"><path d="M 3.4464569091796875 5.673238635063171 L 7.572210788726807 5.609447479248047 L 7.493231534957886 6.550080299377441 L 7.804457187652588 8.482723474502563 L 9.145138263702393 15.805777072906494 L 10.25036358833313 10.38484811782837 C 10.835842609405518 6.968162298202515 10.621018409729004 6.3898537158966064 10.648462772369385 7.115407705307007 L 10.749788045883179 5.7020076513290405 L 13.670979022979736 5.66326117515564 L 13.876755237579346 7.8763439655303955 C 14.047569751739502 8.920922756195068 14.191662311553955 9.000474214553833 13.564045429229736 7.977398872375488 C 14.516610145568848 8.63398790359497 14.751756191253662 13.610866069793701 15.469581127166748 16.529489994049072 C 15.400124073028564 14.26982831954956 16.481327533721924 10.148146390914917 16.988811492919922 7.297878742218018 C 16.978405952453613 6.5952537059783936 17.202565670013428 6.0164995193481445 16.847014904022217 5.761967897415161 L 16.96126699447632 6.0586838722229 C 16.623799324035645 5.643399596214294 16.77658224105835 5.708303689956665 20.06126832962036 5.739641904830933 L 19.639716625213623 7.147566318511963 C 19.46777629852295 7.6399877071380615 19.34969186782837 8.46699571609497 19.074873447418213 9.073232173919678 L 16.018571376800537 22.690418243408203 L 13.783640384674072 22.689106464385986 C 12.845078945159912 18.57569646835327 12.457145690917969 15.212269306182861 11.811409950256348 13.227347373962402 L 10.025819063186646 22.69205904006958 L 7.405767202377319 22.683001041412354 C 6.349071979522705 17.472297191619873 5.588845252990723 13.823627471923828 4.409065246582031 7.969374418258667 C 4.18153989315033 6.9886229038238525 3.9034931659698486 6.538605451583862 3.9428186416625977 6.4262731075286865 L 3.4464569091796875 5.673238635063171 " fill="none" stroke="black" stroke-width="0.3"></path></svg>
