<svg xmlns="http://www.w3.org/2000/svg" xmlns:xlink="http://www.w3.org/1999/xlink" width="50px" height="50px" style="-ms-transform: rotate(360deg); -webkit-transform: rotate(360deg); transform: rotate(360deg);" preserveAspectRatio="xMidYMid meet" viewBox="0 0 24 24"><path d="M 6.908635139465332 5.669812560081482 L 11.198273420333862 5.404452681541443 L 10.856810331344604 5.4178537130355835 C 9.407486200332642 5.54344117641449 11.033756732940674 5.243510842323303 10.731368780136108 6.373587369918823 C 11.101693153381348 7.1726603507995605 11.176535367965698 7.699576377868652 11.198374271392822 7.56250262260437 L 12.200305938720703 10.409090280532837 L 13.19774866104126 7.697810411453247 C 13.838903903961182 5.842758893966675 13.577755451202393 6.1198060512542725 13.726686000823975 5.669140934944153 L 13.98839521408081 5.522744536399841 L 16.51658821105957 5.379043221473694 L 17.144615650177002 5.780539512634277 C 16.22091293334961 7.197627067565918 15.883450984954834 7.890680551528931 15.56226396560669 8.689794301986694 L 13.620110034942627 13.450202465057373 L 16.397066116333008 20.705936908721924 C 16.628002166748047 21.297994136810303 16.968202114105225 21.941343784332275 16.915178775787354 21.840717315673828 L 17.241867542266846 22.691694259643555 L 12.57231616973877 22.68268632888794 L 12.957601547241211 22.698394775390625 C 13.66660737991333 22.599105834960938 13.513073444366455 23.011316299438477 13.141217708587646 21.77396249771118 C 12.715189933776855 19.67246961593628 11.595414876937866 17.759226322174072 11.843821048736572 16.61487579345703 L 10.221409320831299 21.27040958404541 C 10.480314016342163 20.557180881500244 10.045257568359375 22.142868518829346 10.10319471359253 22.0720796585083 L 10.090533971786499 22.692081928253174 L 6.577874422073364 22.679689407348633 L 6.723764419555664 22.28005599975586 C 6.825164794921875 21.683815956115723 7.396245002746582 21.06989622116089 7.905871152877808 19.71520471572876 L 10.241952180862427 14.06951379776001 L 7.986088514328003 8.04763126373291 C 7.599155902862549 6.885506629943848 7.201104640960693 7.0480005741119385 6.994115352630615 6.201817274093628 L 6.908635139465332 5.669812560081482 " fill="none" stroke="black" stroke-width="0.3"></path></svg>
