<svg xmlns="http://www.w3.org/2000/svg" xmlns:xlink="http://www.w3.org/1999/xlink" width="50px" height="50px" style="-ms-transform: rotate(360deg); -webkit-transform: rotate(360deg); transform: rotate(360deg);" preserveAspectRatio="xMidYMid meet" viewBox="0 0 24 24"><path d="M 6.7568199634552 5.6521782875061035 L 10.897412538528442 5.479196548461914 L 10.314995527267456 5.4975539445877075 C 9.08753514289856 5.656625032424927 10.86184573173523 5.436872363090515 10.359160423278809 6.119317531585693 C 10.730559825897217 8.100554466247559 10.942279815673828 7.873831272125244 12.103840827941895 11.723551511764526 L 13.552233695983887 7.24845814704895 C 14.032876968383789 5.7839062213897705 13.332942008972168 5.802397727966309 14.140624523162842 5.548542380332947 L 13.709977626800537 5.560765385627747 L 17.275158405303955 5.4107362031936646 L 16.696206092834473 6.8655760288238525 C 16.24348783493042 7.371464252471924 16.22083568572998 7.691654920578003 15.705299377441406 8.889380693435669 L 13.300705432891846 15.583132266998291 L 13.423075675964355 20.91643238067627 C 13.443313121795654 20.42963218688965 13.407836437225342 21.14158058166504 13.582368850708008 22.319304943084717 L 13.645358562469482 22.68880605697632 L 9.266054391860962 22.688681602478027 L 10.022331476211548 22.693063259124756 C 9.731462717056274 22.76143169403076 9.895130395889282 22.222459316253662 10.114341259002686 20.394992351531982 L 10.107301712036133 15.208030700683594 C 8.995306491851807 12.448375225067139 8.31520700454712 9.856417179107666 7.479359865188599 7.638271808624268 C 7.241804838180542 7.03791618347168 6.798285484313965 6.7900779247283936 6.490877151489258 5.785863518714905 L 6.7568199634552 5.6521782875061035 " fill="none" stroke="black" stroke-width="0.3"></path></svg>
