<svg xmlns="http://www.w3.org/2000/svg" xmlns:xlink="http://www.w3.org/1999/xlink" width="50px" height="50px" style="-ms-transform: rotate(360deg); -webkit-transform: rotate(360deg); transform: rotate(360deg);" preserveAspectRatio="xMidYMid meet" viewBox="0 0 24 24"><path d="M 12.737648963928223 11.511852979660034 C 13.780710697174072 12.338959693908691 15.598454475402832 11.046054124832153 15.703029155731201 14.169081687927246 L 15.670067310333252 18.752956867218018 C 15.541239738464355 19.943181037902832 15.630433559417725 20.48531198501587 15.609818458557129 20.61362886428833 L 15.91225290298462 22.583966732025146 C 15.947293281555176 22.77053689956665 14.999015808105469 22.64249324798584 14.02663278579712 22.696715354919434 C 13.377355098724365 22.613313674926758 12.950891017913818 23.019387245178223 12.877520084381104 21.644432544708252 C 12.221819400787354 22.683804988861084 11.422609806060791 23.03968906402588 10.167911052703857 22.951744079589844 C 8.90693736076355 22.66129446029663 7.96447491645813 21.381959438323975 7.945225954055786 19.424187183380127 C 7.882721185684204 16.76637840270996 8.800026655197144 15.441939353942871 12.63425874710083 16.18529748916626 L 12.761858940124512 15.720269680023193 C 12.806668281555176 13.817368984222412 11.966115474700928 13.331243991851807 11.321672916412354 13.740550518035889 C 11.112820386886597 14.025956153869629 10.720979690551758 14.72574234008789 10.32905387878418 15.187798976898193 L 8.66416883468628 15.432573795318604 C 8.613730430603027 15.502963542938232 8.125916719436646 15.67166805267334 8.90040636062622 15.37472677230835 C 8.310565710067749 15.358840942382812 8.447349786758423 14.384044647216797 8.413415908813477 14.956189155578613 C 8.391559839248657 12.3619065284729 9.792498350143433 11.112610101699829 12.737648963928223 11.511852979660034 M 12.732120037078857 16.550308227539062 C 10.1675705909729 16.929006099700928 11.123349666595459 20.213290214538574 11.153461217880249 20.306791305541992 C 11.147825717926025 19.894646644592285 11.01471734046936 20.742620944976807 12.20463752746582 20.8386812210083 C 10.601197957992554 20.53756856918335 12.563036441802979 21.243247032165527 12.73850154876709 19.85941457748413 L 12.732120037078857 16.550308227539062 " fill="none" stroke="black" stroke-width="0.3"></path></svg>
