<svg xmlns="http://www.w3.org/2000/svg" xmlns:xlink="http://www.w3.org/1999/xlink" width="50px" height="50px" style="-ms-transform: rotate(360deg); -webkit-transform: rotate(360deg); transform: rotate(360deg);" preserveAspectRatio="xMidYMid meet" viewBox="0 0 24 24"><path d="M 8.444556713104248 5.518448352813721 L 11.343370199203491 5.385758399963379 L 11.130980730056763 12.50127124786377 C 11.542716264724731 11.96634292602539 12.327120780944824 11.375993728637695 13.387330055236816 11.422162771224976 C 15.065198421478271 11.402831554412842 16.51905584335327 13.610444068908691 16.284343242645264 17.33873748779297 C 16.24009895324707 20.62547779083252 14.864491939544678 23.09130620956421 12.361916542053223 22.934771060943604 C 10.400571584701538 22.702704906463623 10.812769174575806 21.77186393737793 10.611607074737549 22.438323497772217 L 10.043357133865356 22.76127004623413 L 8.067255020141602 22.67713165283203 L 8.174421072006226 19.815598011016846 L 8.252137899398804 7.1259355545043945 C 8.139434337615967 6.798072338104248 7.803508043289185 5.466487526893616 7.879727125167847 5.699572563171387 L 8.444556713104248 5.518448352813721 M 10.987559795379639 13.868496894836426 C 12.212067604064941 13.155713081359863 12.12691068649292 13.215986251831055 11.201396942138672 14.439737319946289 L 11.080167531967163 19.03573751449585 C 11.228080987930298 20.00427532196045 11.036795139312744 21.0406436920166 12.315948486328125 20.766846656799316 C 12.932046890258789 20.699389457702637 13.180556774139404 18.058164596557617 13.260835647583008 16.769320964813232 C 13.03068494796753 12.643024921417236 12.118108749389648 14.440409660339355 10.987559795379639 13.868496894836426 " fill="none" stroke="black" stroke-width="0.3"></path></svg>
