<svg xmlns="http://www.w3.org/2000/svg" xmlns:xlink="http://www.w3.org/1999/xlink" width="50px" height="50px" style="-ms-transform: rotate(360deg); -webkit-transform: rotate(360deg); transform: rotate(360deg);" preserveAspectRatio="xMidYMid meet" viewBox="0 0 24 24"><path d="M 13.021345138549805 11.510996103286743 C 14.375544548034668 11.492002487182617 15.554733753204346 11.858691930770874 15.509146213531494 13.225122928619385 L 15.400823593139648 14.87746810913086 C 14.562947273254395 15.502760410308838 13.723836421966553 14.394015312194824 13.529364109039307 14.073848247528076 C 13.14503002166748 13.711642742156982 12.642035007476807 13.682291507720947 12.986649513244629 13.64877462387085 C 12.444939136505127 13.81547498703003 11.67869782447815 14.398457050323486 11.744346857070923 17.287585258483887 C 11.670952320098877 19.262712478637695 12.159111499786377 20.707275867462158 13.085882663726807 20.517934799194336 C 12.620647430419922 20.45639419555664 13.790873050689697 20.942689418792725 15.200285911560059 19.886311054229736 L 15.309884548187256 20.98764181137085 C 15.38831377029419 22.44561195373535 14.006136417388916 22.85718011856079 12.401026725769043 23.026315212249756 C 9.899588584899902 22.89365243911743 8.419148683547974 20.423396587371826 8.688674926757812 17.102020740509033 C 8.830648183822632 13.51352834701538 10.745568037033081 11.38927173614502 13.021345138549805 11.510996103286743 " fill="none" stroke="black" stroke-width="0.3"></path></svg>
