<svg xmlns="http://www.w3.org/2000/svg" xmlns:xlink="http://www.w3.org/1999/xlink" width="50px" height="50px" style="-ms-transform: rotate(360deg); -webkit-transform: rotate(360deg); transform: rotate(360deg);" preserveAspectRatio="xMidYMid meet" viewBox="0 0 24 24"><path d="M 16.05594491958618 5.481809377670288 L 15.887938499450684 20.710796356201172 L 15.871354579925537 20.721628189086914 L 16.09174633026123 22.70403528213501 C 14.476837635040283 22.621135711669922 13.107709407806396 22.839441776275635 13.000608444213867 22.498363494873047 L 13.020370960235596 21.102257251739502 C 12.856577396392822 22.91645050048828 11.000947952270508 23.004987716674805 10.409615993499756 22.8693208694458 C 8.843353271484375 22.545958042144775 7.677975654602051 20.65054750442505 7.699818849563599 17.577784538269043 C 7.799981117248535 14.22178316116333 8.852869749069214 11.550233602523804 11.046988248825073 11.445626735687256 C 12.71024465560913 11.35453462600708 12.640548706054688 11.814486265182495 13.05860710144043 12.127942085266113 L 13.071812152862549 6.947672367095947 C 12.901669979095459 6.651777505874634 12.850958347320557 5.929481148719788 12.758105278015137 5.768282532691956 L 12.711688041687012 5.845033407211304 C 12.97016429901123 5.617804527282715 12.82336950302124 6.002741575241089 16.05594491958618 5.481809377670288 M 11.791455745697021 13.665982246398926 C 11.111921310424805 13.745375633239746 10.931807041168213 14.82555627822876 10.891085386276245 16.166396141052246 C 10.867233037948608 17.377620220184326 10.838805198669434 19.71547508239746 11.383020401000977 20.249346256256104 C 11.821808338165283 20.95430088043213 12.879462718963623 20.740230560302734 12.978306770324707 19.415499687194824 L 12.960853099822998 14.159611701965332 C 12.819899082183838 13.05635404586792 10.6015305519104 13.973396301269531 11.791455745697021 13.665982246398926 " fill="none" stroke="black" stroke-width="0.3"></path></svg>
