<svg xmlns="http://www.w3.org/2000/svg" xmlns:xlink="http://www.w3.org/1999/xlink" width="50px" height="50px" style="-ms-transform: rotate(360deg); -webkit-transform: rotate(360deg); transform: rotate(360deg);" preserveAspectRatio="xMidYMid meet" viewBox="0 0 24 24"><path d="M 13.46045207977295 5.390606045722961 C 15.443880558013916 5.474876046180725 15.404321193695068 5.156118750572205 15.244425773620605 7.158915281295776 L 15.06305980682373 7.954435586929321 C 14.156191349029541 8.046183586120605 14.360260963439941 7.125737428665161 13.321979999542236 7.554354429244995 C 13.428028106689453 7.89255166053772 12.918269634246826 7.733186960220337 13.288613319396973 7.704019546508789 C 13.193708896636963 7.8304123878479 13.149295806884766 8.333371639251709 13.055120944976807 8.762944221496582 C 12.95580768585205 9.24919581413269 13.02784538269043 9.895085334777832 12.985349178314209 10.403983354568481 L 12.985423564910889 11.40234661102295 L 14.55902624130249 11.480138540267944 L 14.533819198608398 13.741803646087646 L 13.032448768615723 13.76727819442749 L 13.163785457611084 19.956499099731445 L 13.118881702423096 20.155659198760986 L 13.290567398071289 22.689680099487305 L 9.930627822875977 22.686687469482422 L 9.858105182647705 22.2606840133667 L 10.002428770065308 20.840576648712158 L 10.040517568588257 13.763641834259033 L 8.829838514328003 13.70068073272705 L 8.883098602294922 11.996799945831299 L 10.18740463256836 11.571516752243042 L 10.178650617599487 10.136984825134277 C 10.236875295639038 7.83429479598999 10.642635583877563 7.05502724647522 10.671455383300781 7.135187387466431 C 11.001956462860107 6.184065341949463 12.269847393035889 5.319701671600342 13.46045207977295 5.390606045722961 " fill="none" stroke="black" stroke-width="0.3"></path></svg>
