<svg xmlns="http://www.w3.org/2000/svg" xmlns:xlink="http://www.w3.org/1999/xlink" width="50px" height="50px" style="-ms-transform: rotate(360deg); -webkit-transform: rotate(360deg); transform: rotate(360deg);" preserveAspectRatio="xMidYMid meet" viewBox="0 0 24 24"><path d="M 11.811610221862793 6.37048602104187 C 12.707895755767822 6.3424973487854 13.792008876800537 6.792184352874756 13.768864631652832 8.125850915908813 C 13.550415515899658 9.604013442993164 12.829297542572021 10.182169675827026 11.530007600784302 9.844849348068237 C 10.814782619476318 9.535256624221802 10.237187147140503 8.804319620132446 10.47506332397461 7.741197824478149 C 10.403711557388306 7.034000873565674 10.737269639968872 6.629534482955933 11.811610221862793 6.37048602104187 M 12.11081600189209 11.794233798980713 L 13.563636302947998 11.361250877380371 L 13.410201072692871 20.590696334838867 C 13.574117660522461 21.511954307556152 12.67576789855957 21.199881076812744 13.126537799835205 19.871036052703857 L 13.83165979385376 22.69099187850952 C 13.650715827941895 22.66369915008545 12.323378562927246 22.72713804244995 10.075025796890259 22.660059928894043 C 10.624563217163086 21.495479106903076 10.37146782875061 17.32044267654419 10.340044498443604 12.93717098236084 C 9.370094776153564 11.638750791549683 10.556800603866577 11.885478258132935 12.11081600189209 11.794233798980713 " fill="none" stroke="black" stroke-width="0.3"></path></svg>
