<svg xmlns="http://www.w3.org/2000/svg" xmlns:xlink="http://www.w3.org/1999/xlink" width="50px" height="50px" style="-ms-transform: rotate(360deg); -webkit-transform: rotate(360deg); transform: rotate(360deg);" preserveAspectRatio="xMidYMid meet" viewBox="0 0 24 24"><path d="M 8.32651662826538 5.639233231544495 L 11.40137243270874 5.403105854988098 L 11.134473323822021 16.320123195648193 L 12.974870681762695 13.146739482879639 C 12.983150482177734 11.411659240722656 13.839497566223145 11.944128513336182 12.904658317565918 11.857656240463257 L 12.459335803985596 11.871831893920898 L 16.022046089172363 11.799336433410645 L 15.223641872406006 12.36547565460205 C 17.07988929748535 10.79905915260315 16.298327922821045 12.92034387588501 15.253791332244873 13.652832984924316 L 13.713706970214844 16.12414026260376 C 14.3249831199646 17.609477519989014 14.997716903686523 19.02633762359619 15.5460205078125 20.295076847076416 C 16.01688051223755 21.468029022216797 16.32126760482788 21.564311027526855 16.641836643218994 22.694223403930664 L 13.353002071380615 22.67715883255005 C 12.754985332489014 21.328768730163574 12.325128078460693 19.57133388519287 12.528157711029053 20.675747394561768 C 12.514763832092285 19.68087673187256 11.583010196685791 18.946482181549072 11.130276918411255 16.964823246002197 C 12.552080154418945 16.815390586853027 12.367299556732178 18.42980146408081 11.26936411857605 17.60209035873413 C 11.265536785125732 19.50379514694214 11.043545722961426 20.03404712677002 11.226825714111328 21.371845722198486 C 11.178447961807251 21.966735363006592 11.30738353729248 22.471684455871582 11.244054794311523 22.4704327583313 L 11.326712608337402 22.686065196990967 L 8.087718486785889 22.688193798065186 L 7.993852615356445 22.31509494781494 C 8.415981531143188 20.708025455474854 8.196475267410278 21.05566692352295 8.294888734817505 18.949669361114502 C 8.215888738632202 14.369603633880615 8.399226665496826 11.897062540054321 8.458301782608032 7.759192228317261 C 8.478412628173828 6.707212686538696 8.13919973373413 6.34960412979126 8.064039945602417 5.9011008739471436 L 8.32651662826538 5.639233231544495 " fill="none" stroke="black" stroke-width="0.3"></path></svg>
