<svg xmlns="http://www.w3.org/2000/svg" xmlns:xlink="http://www.w3.org/1999/xlink" width="50px" height="50px" style="-ms-transform: rotate(360deg); -webkit-transform: rotate(360deg); transform: rotate(360deg);" preserveAspectRatio="xMidYMid meet" viewBox="0 0 24 24"><path d="M 13.559014320373535 11.295136213302612 C 14.962748050689697 11.3357834815979 16.02049684524536 12.216166019439697 15.996256828308105 14.525108814239502 L 15.94229507446289 20.51121711730957 L 15.874577522277832 20.470941066741943 L 16.26545763015747 22.689888954162598 L 12.853059768676758 22.68816089630127 L 12.986872673034668 16.44917392730713 C 12.912543296813965 14.02182912826538 12.93817663192749 14.040468692779541 12.177756786346436 13.87421464920044 C 11.030397891998291 14.089004516601562 11.32131314277649 14.002846240997314 11.137556791305542 15.353922843933105 L 11.086966037750244 21.205902099609375 L 11.283155679702759 22.390681743621826 L 11.382385969161987 22.684500217437744 L 7.699688673019409 22.689871788024902 L 7.783627510070801 21.9215669631958 L 8.144493341445923 21.126720428466797 L 8.149754047393799 14.548035621643066 L 8.063474178314209 13.282630920410156 L 7.721492528915405 11.890995740890503 L 11.033482789993286 11.776466846466064 L 10.7524094581604 12.816707611083984 C 11.134588479995728 12.707984447479248 11.969491481781006 11.230100154876709 13.559014320373535 11.295136213302612 " fill="none" stroke="black" stroke-width="0.3"></path></svg>
