<svg xmlns="http://www.w3.org/2000/svg" xmlns:xlink="http://www.w3.org/1999/xlink" width="50px" height="50px" style="-ms-transform: rotate(360deg); -webkit-transform: rotate(360deg); transform: rotate(360deg);" preserveAspectRatio="xMidYMid meet" viewBox="0 0 24 24"><path d="M 13.002299308776855 11.350217342376709 C 15.161417484283447 11.17661190032959 16.49148988723755 13.53385877609253 16.26926851272583 17.538411140441895 C 16.210703372955322 21.262435913085938 14.420531272888184 23.38676691055298 12.264852046966553 22.8826003074646 C 12.32253885269165 22.797836780548096 11.58720588684082 22.707590103149414 10.899586915969849 22.406407356262207 L 11.102017879486084 27.65255641937256 L 11.43142032623291 27.63856029510498 L 11.422544002532959 28.7973575592041 L 7.170405864715576 28.78993034362793 L 7.1857523918151855 27.86704444885254 L 7.8824450969696045 27.953421592712402 L 8.150497198104858 15.435373306274414 L 8.032999992370605 12.993985176086426 L 7.782789945602417 11.872125148773193 L 10.802589654922485 11.740901470184326 L 10.654815673828125 13.325108528137207 C 10.833086729049683 11.881357669830322 12.50747537612915 11.297344207763672 13.002299308776855 11.350217342376709 M 11.976122617721558 13.84180212020874 C 10.959189176559448 13.986305236816406 11.17375659942627 14.200242519378662 11.027440309524536 15.591848373413086 L 11.08992862701416 19.23487615585327 C 11.196500301361084 20.765427589416504 11.549428224563599 20.78175973892212 12.269054889678955 20.64312171936035 C 12.785366535186768 20.684762477874756 13.061815738677979 18.869163036346436 13.191709041595459 17.888810634613037 C 13.24491834640503 14.535392761230469 12.798655986785889 13.820441722869873 11.976122617721558 13.84180212020874 " fill="none" stroke="black" stroke-width="0.3"></path></svg>
