<svg xmlns="http://www.w3.org/2000/svg" xmlns:xlink="http://www.w3.org/1999/xlink" width="50px" height="50px" style="-ms-transform: rotate(360deg); -webkit-transform: rotate(360deg); transform: rotate(360deg);" preserveAspectRatio="xMidYMid meet" viewBox="0 0 24 24"><path d="M 11.161706686019897 11.508640766143799 C 12.41037654876709 11.267364978790283 12.806319236755371 11.786800861358643 13.552491188049316 12.138381958007812 L 14.18439531326294 11.788888692855835 L 16.01229429244995 11.651371479034424 L 15.680073738098145 28.761935234069824 L 12.521351337432861 28.600811004638672 L 12.884838581085205 22.068915367126465 C 11.949363470077515 22.59172296524048 11.541767835617065 22.89059829711914 11.311625003814697 22.871131896972656 C 9.542329788208008 23.254132747650146 7.64631199836731 21.19752788543701 7.883057355880737 17.223275184631348 C 7.89753270149231 14.053829669952393 9.185763359069824 11.743695259094238 11.161706686019897 11.508640766143799 M 11.878727674484253 13.585172653198242 C 11.308068752288818 13.50278377532959 10.911103963851929 14.82932424545288 10.959686994552612 18.384398460388184 C 11.003278255462646 20.87675142288208 12.000768184661865 20.62338352203369 13.103962898254395 20.286935806274414 C 11.49793267250061 20.910680294036865 12.612991333007812 21.17892837524414 12.923615455627441 19.16955041885376 L 13.046974182128906 16.606894969940186 C 12.943066120147705 13.941797733306885 13.207581996917725 13.367066860198975 11.878727674484253 13.585172653198242 " fill="none" stroke="black" stroke-width="0.3"></path></svg>
