<svg xmlns="http://www.w3.org/2000/svg" xmlns:xlink="http://www.w3.org/1999/xlink" width="50px" height="50px" style="-ms-transform: rotate(360deg); -webkit-transform: rotate(360deg); transform: rotate(360deg);" preserveAspectRatio="xMidYMid meet" viewBox="0 0 24 24"><path d="M 12.79885482788086 11.576361894607544 C 12.640601634979248 11.410847425460815 14.272381782531738 12.038776874542236 14.947869300842285 12.302277088165283 L 14.540679931640625 14.586816787719727 C 13.484679222106934 14.785898208618164 13.581828117370605 13.836944103240967 12.494572162628174 13.413780212402344 C 12.226982116699219 13.334627151489258 11.697926759719849 13.564523220062256 12.27872371673584 13.377212047576904 C 11.842269659042358 13.342949867248535 11.582175493240356 13.56230878829956 11.480949640274048 13.99940299987793 C 11.427342653274536 14.474358558654785 11.286166191101074 14.770082473754883 11.427202463150024 13.511996269226074 C 11.459107875823975 13.933865547180176 11.211660146713257 14.35689640045166 11.747181415557861 15.015655517578125 C 12.22666311264038 15.51598834991455 12.5197434425354 15.60010814666748 12.871840953826904 15.9017014503479 C 13.53829050064087 16.32667064666748 14.171034336090088 17.061840534210205 13.936693668365479 16.857396125793457 C 13.517881393432617 16.747491359710693 13.897333145141602 16.49469566345215 14.863361835479736 17.928900718688965 C 15.34220266342163 18.719208240509033 15.311329364776611 20.00786590576172 15.046623229980469 20.75016975402832 C 14.651198387145996 22.01647710800171 13.747591495513916 22.29695749282837 13.597382068634033 22.442378997802734 C 13.323540687561035 22.688916206359863 12.162757873535156 23.012084484100342 11.56417465209961 22.96153736114502 C 10.842573165893555 22.97355079650879 9.970149993896484 22.692044734954834 11.05479383468628 22.93492841720581 C 10.764798402786255 22.959142684936523 9.985916376113892 22.692798614501953 9.327540636062622 22.44832420349121 C 8.691317796707153 22.145298957824707 8.591593265533447 21.85676908493042 8.808021068572998 20.865458965301514 C 8.957163333892822 20.466776847839355 8.960060834884644 19.925607204437256 9.341739177703857 19.992170333862305 C 9.335737466812134 19.910163402557373 10.214703798294067 20.470012664794922 10.89412236213684 20.814652919769287 C 11.483656883239746 20.969289779663086 11.984906673431396 20.85962963104248 12.444190979003906 20.792917728424072 C 12.599483013153076 21.117892742156982 11.692023754119873 21.14708948135376 11.817829370498657 20.857020378112793 C 12.123696327209473 20.771711826324463 12.5224928855896 20.33461046218872 12.358994007110596 20.409951210021973 C 12.52078628540039 20.430829524993896 12.616943836212158 19.888761520385742 12.31089448928833 19.458455085754395 C 12.061885356903076 18.96894407272339 11.542514562606812 18.79481792449951 11.246277809143066 18.530523777008057 C 10.5344717502594 18.105491638183594 10.089844465255737 17.618207931518555 10.099175691604614 17.7265362739563 C 9.458121299743652 17.054250240325928 8.992916822433472 16.40881633758545 9.029853343963623 15.968301773071289 C 8.647215127944946 15.483203887939453 8.968334913253784 13.922059535980225 9.021871089935303 13.802320003509521 C 9.298770189285278 12.718035221099854 10.498010873794556 11.392805814743042 12.79885482788086 11.576361894607544 " fill="none" stroke="black" stroke-width="0.3"></path></svg>
