<svg xmlns="http://www.w3.org/2000/svg" xmlns:xlink="http://www.w3.org/1999/xlink" width="50px" height="50px" style="-ms-transform: rotate(360deg); -webkit-transform: rotate(360deg); transform: rotate(360deg);" preserveAspectRatio="xMidYMid meet" viewBox="0 0 24 24"><path d="M 5.174763321876526 11.903795957565308 L 8.412567615509033 11.910429954528809 L 8.373233556747437 11.814552068710327 C 8.511214971542358 11.879884958267212 8.451491117477417 13.37372875213623 8.762390613555908 14.095609188079834 C 9.354750394821167 16.227463245391846 9.491628170013428 16.903470039367676 8.840261936187744 13.175605773925781 L 9.731150150299072 18.343367099761963 L 10.48751449584961 14.946799278259277 L 10.855085134506226 11.825029134750366 L 10.782391548156738 11.882617950439453 L 12.969059944152832 11.801686763763428 L 13.204401969909668 11.874637126922607 C 13.336069107055664 11.819912910461426 13.397425174713135 12.01320505142212 13.449820518493652 12.573537826538086 C 13.661938190460205 14.688852310180664 13.606445789337158 13.29679012298584 14.469258785247803 17.57026720046997 L 15.456510543823242 13.224231719970703 C 15.444106578826904 11.354491710662842 15.370206356048584 11.70072054862976 15.978973388671875 11.611295700073242 L 15.787631034851074 11.528296709060669 L 18.421683311462402 11.481662034988403 L 17.985225677490234 12.808934211730957 C 17.97747802734375 12.96884536743164 17.749711990356445 13.171963691711426 17.362229347229004 14.380255222320557 L 15.140928268432617 22.679670810699463 L 13.243846893310547 22.752923011779785 L 11.824022769927979 16.800611972808838 L 10.371732473373413 22.747550010681152 L 8.309094429016113 22.71286153793335 C 7.360332012176514 19.782355785369873 6.663961887359619 16.861315727233887 6.009627342224121 14.167337894439697 C 5.739199161529541 13.152332782745361 5.266736626625061 12.750188827514648 5.24817681312561 12.028020858764648 L 5.174763321876526 11.903795957565308 " fill="none" stroke="black" stroke-width="0.3"></path></svg>
