<svg xmlns="http://www.w3.org/2000/svg" xmlns:xlink="http://www.w3.org/1999/xlink" width="50px" height="50px" style="-ms-transform: rotate(360deg); -webkit-transform: rotate(360deg); transform: rotate(360deg);" preserveAspectRatio="xMidYMid meet" viewBox="0 0 24 24"><path d="M 7.947359561920166 11.830778360366821 L 11.047309398651123 11.829157590866089 L 11.490045547485352 13.057087898254395 L 11.282275915145874 12.509202003479004 L 12.239298820495605 14.73200798034668 L 12.86795425415039 13.168805122375488 C 13.580486297607422 11.640302181243896 13.353159427642822 11.781938552856445 13.0272216796875 11.831159591674805 L 12.755757808685303 11.828674793243408 L 16.163404941558838 11.801766157150269 L 15.79277229309082 12.53518295288086 C 15.490392208099365 13.05009126663208 15.088016510009766 13.454339504241943 14.87248706817627 14.08994722366333 L 13.464463233947754 16.8637375831604 L 15.405067920684814 20.932199478149414 C 15.49436330795288 21.3680477142334 15.810444831848145 21.62484884262085 15.905613899230957 21.90809726715088 L 16.24491262435913 22.691283702850342 L 12.81196403503418 22.688507080078125 L 12.952239990234375 22.684314250946045 C 12.927899837493896 22.865166664123535 12.900249481201172 22.457714080810547 12.633227348327637 21.769935607910156 C 11.893132209777832 19.933402061462402 11.749141216278076 19.95364809036255 11.825648546218872 18.607535362243652 C 11.660090446472168 20.11137342453003 10.842798471450806 20.888770580291748 10.738289594650269 21.522751808166504 C 11.034032106399536 20.53569459915161 11.131700992584229 20.7095947265625 10.60573697090149 21.969507694244385 L 10.472235202789307 22.728095054626465 L 7.623464584350586 22.71416187286377 L 7.796075105667114 22.036394119262695 C 8.114861726760864 21.696268558502197 8.422203540802002 21.36152744293213 8.919858455657959 20.393211364746094 L 10.524843692779541 17.302685737609863 C 9.821471929550171 16.225716590881348 9.201990365982056 14.290180206298828 8.653278350830078 13.488492965698242 C 8.481084108352661 12.98375129699707 8.123017072677612 12.675797939300537 7.936878204345703 12.327152252197266 L 7.947359561920166 11.830778360366821 " fill="none" stroke="black" stroke-width="0.3"></path></svg>
