<svg xmlns="http://www.w3.org/2000/svg" xmlns:xlink="http://www.w3.org/1999/xlink" width="50px" height="50px" style="-ms-transform: rotate(360deg); -webkit-transform: rotate(360deg); transform: rotate(360deg);" preserveAspectRatio="xMidYMid meet" viewBox="0 0 24 24"><path d="M 7.617862701416016 11.911757469177246 L 11.185241460800171 11.903819561004639 L 11.09248423576355 11.906688451766968 C 10.397112607955933 11.833159446716309 10.899568319320679 11.948850631713867 10.898056983947754 12.696450233459473 C 11.181811094284058 13.31788158416748 11.532990217208862 15.373246192932129 11.177779197692871 14.114717960357666 L 12.268064975738525 17.595974922180176 L 13.228865146636963 13.257189273834229 C 13.538131713867188 12.554258823394775 13.19800615310669 12.252950191497803 13.269116878509521 13.280462265014648 C 13.55121660232544 12.081374645233154 13.102327823638916 12.455526351928711 13.392160892486572 11.636813879013062 L 14.168942928314209 11.538334608078003 L 16.14266538619995 11.595185279846191 L 16.314082145690918 11.89582371711731 C 15.903033256530762 12.521793365478516 15.687407970428467 13.30870771408081 15.392287731170654 14.289939880371094 L 12.545481204986572 23.59220266342163 C 11.56649136543274 25.29960823059082 11.277284145355225 27.504764556884766 9.35083794593811 27.018516540527344 C 8.368486404418945 26.876852989196777 7.7075865268707275 26.690935134887695 8.078460931777954 25.534918785095215 C 8.16166090965271 24.858555793762207 8.702004432678223 24.548592567443848 9.024989604949951 24.108939170837402 C 8.54876160621643 24.188661575317383 9.364247560501099 25.44649600982666 9.722439050674438 25.29924201965332 C 9.528587579727173 24.742478370666504 10.562438249588013 23.134225845336914 10.60861587524414 22.68538999557495 C 10.361816167831421 23.362303733825684 10.068813800811768 23.384443759918213 10.375555515289307 23.210881233215332 C 9.869316101074219 23.44098472595215 9.881561994552612 23.266232013702393 9.72244119644165 23.260764598846436 C 8.981172323226929 23.14685297012329 8.580451011657715 22.920272827148438 8.622010946273804 22.969993114471436 C 8.748154878616333 23.0016188621521 9.113262176513672 23.14039707183838 9.677018880844116 23.252949714660645 C 10.393004179000854 23.567074298858643 10.946460485458374 22.853347778320312 10.27419376373291 21.29499578475952 L 8.04991865158081 13.582802295684814 C 6.971633434295654 11.987258434295654 7.68932318687439 12.170159339904785 7.418318510055542 11.95823049545288 L 7.617862701416016 11.911757469177246 " fill="none" stroke="black" stroke-width="0.3"></path></svg>
