<svg xmlns="http://www.w3.org/2000/svg" xmlns:xlink="http://www.w3.org/1999/xlink" width="50px" height="50px" style="-ms-transform: rotate(360deg); -webkit-transform: rotate(360deg); transform: rotate(360deg);" preserveAspectRatio="xMidYMid meet" viewBox="0 0 24 24"><path d="M 7.823650360107422 5.4903963804244995 L 11.963285207748413 5.557492017745972 C 14.80964469909668 5.619177460670471 16.97706127166748 6.716503858566284 16.877307415008545 10.0014066696167 C 16.82577896118164 11.759239196777344 15.749444961547852 13.204593658447266 14.07822561264038 13.73587417602539 C 15.17605447769165 13.78320837020874 16.993337631225586 15.111361026763916 16.975244522094727 17.47350311279297 C 17.091609477996826 20.788611888885498 15.065762042999268 22.44957160949707 11.758156299591064 22.688870429992676 L 7.058392524719238 22.682817935943604 L 7.823650360107422 5.4903963804244995 M 11.74264669418335 8.311487674713135 L 11.289409160614014 8.272552728652954 L 11.10754680633545 12.42200517654419 L 11.050422191619873 12.496828079223633 C 12.725840091705322 12.484535694122314 13.402496337890625 11.52323055267334 13.17041301727295 9.612236022949219 C 13.068373203277588 8.96976113319397 12.538687705993652 8.28271222114563 11.74264669418335 8.311487674713135 M 10.824609518051147 15.158469200134277 L 11.00460147857666 14.95627498626709 L 10.869895935058594 19.287179946899414 L 10.923372030258179 19.711639881134033 C 12.494686603546143 19.81394863128662 13.409304141998291 18.971510410308838 13.258333683013916 17.18435525894165 C 13.115793228149414 16.107873916625977 12.608199119567871 14.955648422241211 10.824609518051147 15.158469200134277 " fill="none" stroke="black" stroke-width="0.3"></path></svg>
