<svg xmlns="http://www.w3.org/2000/svg" xmlns:xlink="http://www.w3.org/1999/xlink" width="50px" height="50px" style="-ms-transform: rotate(360deg); -webkit-transform: rotate(360deg); transform: rotate(360deg);" preserveAspectRatio="xMidYMid meet" viewBox="0 0 24 24"><path d="M 12.5743088722229 5.328395962715149 C 13.61916446685791 5.281629681587219 16.50460195541382 5.749645113945007 16.91146945953369 7.195354700088501 L 16.763202667236328 9.743230819702148 C 13.37267017364502 9.521788358688354 15.049017906188965 8.532197713851929 13.09727668762207 8.322284460067749 C 11.638622045516968 8.269176006317139 10.449809074401855 10.634935855865479 10.352788209915161 14.049904346466064 C 10.228550434112549 16.76201105117798 10.660074234008789 19.88856840133667 12.195121765136719 19.699923992156982 C 12.74427080154419 19.68543577194214 13.32986068725586 19.75276279449463 13.559422016143799 19.299110412597656 L 13.637041568756104 15.906280517578125 L 12.148528575897217 15.893046855926514 L 12.228309631347656 13.371837615966797 L 17.429451942443848 13.29834794998169 L 16.763279914855957 21.473045825958252 C 16.24084711074829 22.387059688568115 12.112861633300781 23.060641765594482 12.217276096343994 22.92290496826172 C 8.1324942111969 22.87071704864502 6.179404020309448 19.419394969940186 6.366983413696289 13.683201313018799 C 6.877775430679321 9.671389102935791 8.703729629516602 5.419670462608337 12.5743088722229 5.328395962715149 " fill="none" stroke="black" stroke-width="0.3"></path></svg>
