<svg xmlns="http://www.w3.org/2000/svg" xmlns:xlink="http://www.w3.org/1999/xlink" width="50px" height="50px" style="-ms-transform: rotate(360deg); -webkit-transform: rotate(360deg); transform: rotate(360deg);" preserveAspectRatio="xMidYMid meet" viewBox="0 0 24 24"><path d="M 6.188178777694702 5.886757850646973 L 10.483054161071777 5.881978511810303 L 12.058517932891846 15.027256965637207 C 12.146857738494873 14.958475112915039 13.183403491973877 9.995484352111816 14.327197551727295 5.904908180236816 L 18.909912586212158 5.907086133956909 C 18.782808780670166 7.141855716705322 19.005566596984863 14.944102764129639 18.810317516326904 22.687748908996582 L 15.344468593597412 22.68805503845215 C 15.578271389007568 18.274063110351562 15.43245792388916 14.979881286621094 15.540414333343506 10.760379552841187 C 15.176995754241943 13.480763912200928 13.58937406539917 18.501902103424072 12.754029750823975 22.61823606491089 L 10.504011154174805 22.626657485961914 C 9.972483158111572 18.271326541900635 8.7942373752594 15.06939697265625 8.685262441635132 10.333554983139038 C 8.842708110809326 14.574105262756348 7.930374383926392 19.07825803756714 8.000459432601929 22.666475772857666 C 5.916917681694031 22.72789764404297 4.581380367279053 22.6434645652771 4.715932846069336 22.71322774887085 C 5.230940580368042 16.74551296234131 5.488035321235657 13.026281833648682 6.188178777694702 5.886757850646973 " fill="none" stroke="black" stroke-width="0.3"></path></svg>
