<svg xmlns="http://www.w3.org/2000/svg" xmlns:xlink="http://www.w3.org/1999/xlink" width="50px" height="50px" style="-ms-transform: rotate(360deg); -webkit-transform: rotate(360deg); transform: rotate(360deg);" preserveAspectRatio="xMidYMid meet" viewBox="0 0 24 24"><path d="M 12.652021408081055 5.3545743227005005 C 13.750997543334961 5.354861855506897 16.025842666625977 5.66115403175354 15.964515209197998 6.564454078674316 L 15.686432361602783 9.467698574066162 C 14.321252346038818 8.950230360031128 14.004481315612793 8.286671161651611 13.214564323425293 8.441693544387817 C 12.32382345199585 8.175774335861206 11.744969844818115 9.12783694267273 11.58241868019104 10.053631782531738 C 11.738020420074463 10.805646657943726 12.18101978302002 11.723587989807129 13.339651107788086 12.56313943862915 C 14.774754524230957 13.942873477935791 16.325294494628906 15.089345455169678 16.330983638763428 17.849224090576172 C 16.1228985786438 20.780486583709717 13.90078067779541 22.910173416137695 10.832590341567993 22.91385555267334 C 8.680251359939575 22.75468683242798 8.435903549194336 22.344178676605225 7.541679382324219 21.987957000732422 L 8.081396341323853 18.945806980133057 C 8.505424976348877 18.321088314056396 10.315014839172363 19.643823623657227 10.663541793823242 19.45746946334839 C 11.911412000656128 19.615764141082764 12.625572681427002 18.824975967407227 12.652416229248047 17.944251537322998 C 12.624637126922607 16.689997673034668 11.506303310394287 16.029414653778076 10.989580392837524 15.459915161132812 C 9.230798721313477 13.778979778289795 8.018154859542847 12.627858638763428 8.085845232009888 9.9288969039917 C 8.124322414398193 7.117294549942017 10.261068105697632 5.139779090881348 12.652021408081055 5.3545743227005005 " fill="none" stroke="black" stroke-width="0.3"></path></svg>
