<svg xmlns="http://www.w3.org/2000/svg" xmlns:xlink="http://www.w3.org/1999/xlink" width="50px" height="50px" style="-ms-transform: rotate(360deg); -webkit-transform: rotate(360deg); transform: rotate(360deg);" preserveAspectRatio="xMidYMid meet" viewBox="0 0 24 24"><path d="M 13.08362102508545 11.393672704696655 C 12.152845859527588 12.039103031158447 16.924238204956055 10.948173522949219 16.476967334747314 11.63285779953003 L 15.928796768188477 20.609722137451172 C 15.88341236114502 19.698423385620117 15.841697216033936 20.241730213165283 15.946982860565186 19.896286010742188 L 15.909828186035156 22.672051906585693 C 16.109344482421875 22.68394374847412 14.218631744384766 22.716959953308105 13.240845680236816 22.66170072555542 C 12.871091365814209 22.86713933944702 12.480824947357178 22.260329246520996 12.824066162109375 21.077234745025635 C 12.463900566101074 22.338300704956055 11.326946496963501 23.02294635772705 10.084093809127808 22.976501941680908 C 8.04090428352356 22.58246612548828 7.298839330673218 20.796249389648438 7.337084054946899 17.790902137756348 C 7.575334310531616 13.445048332214355 8.732216119766235 10.30591607093811 13.08362102508545 11.393672704696655 M 11.905010461807251 13.890891551971436 C 10.959795713424683 14.174049854278564 10.872786283493042 16.184682369232178 10.885476350784302 17.33693218231201 C 10.776162385940552 19.450500011444092 11.165263652801514 20.169236183166504 11.711819887161255 20.264000415802002 C 12.614338874816895 19.993825435638428 12.526007652282715 20.071972846984863 12.889514923095703 17.378475666046143 L 12.884569644927979 15.033286571502686 C 12.881187915802002 14.456043720245361 12.720601558685303 13.871227741241455 11.905010461807251 13.890891551971436 " fill="none" stroke="black" stroke-width="0.3"></path></svg>
