<svg xmlns="http://www.w3.org/2000/svg" xmlns:xlink="http://www.w3.org/1999/xlink" width="50px" height="50px" style="-ms-transform: rotate(360deg); -webkit-transform: rotate(360deg); transform: rotate(360deg);" preserveAspectRatio="xMidYMid meet" viewBox="0 0 24 24"><path d="M 16.754437923431396 5.399393677711487 L 15.98239803314209 22.684926509857178 L 12.846957206726074 22.695661067962646 C 12.433018684387207 21.034403800964355 12.352362155914307 19.674237728118896 12.735649108886719 21.256008625030518 C 12.376866817474365 22.42730140686035 11.47579050064087 23.153203010559082 9.962195634841919 22.937576293945312 C 8.09959888458252 22.247334480285645 7.145555019378662 20.73731231689453 7.24178409576416 17.07144784927368 C 7.516722679138184 13.644886493682861 8.679126977920532 10.809149265289307 11.983755111694336 11.199763298034668 C 13.457367897033691 11.836135625839233 12.805302143096924 12.588659763336182 13.183480739593506 11.595982789993286 L 13.266899585723877 5.449618935585022 L 16.754437923431396 5.399393677711487 M 12.5314621925354 13.802384376525879 C 11.01149296760559 13.61312198638916 10.854179620742798 15.122398853302002 10.824342727661133 17.50812005996704 C 10.8046395778656 19.158811569213867 11.230315446853638 20.67868137359619 12.110936164855957 20.138807773590088 C 12.376223087310791 20.25419569015503 12.706695556640625 19.423041343688965 12.805556774139404 18.26949405670166 C 12.843080520629883 15.694331645965576 13.051254272460938 13.915673732757568 12.5314621925354 13.802384376525879 " fill="none" stroke="black" stroke-width="0.3"></path></svg>
