<svg xmlns="http://www.w3.org/2000/svg" xmlns:xlink="http://www.w3.org/1999/xlink" width="50px" height="50px" style="-ms-transform: rotate(360deg); -webkit-transform: rotate(360deg); transform: rotate(360deg);" preserveAspectRatio="xMidYMid meet" viewBox="0 0 24 24"><path d="M 13.721137046813965 11.304996013641357 C 15.59712839126587 11.77396273612976 16.715397834777832 13.876287460327148 16.11021137237549 17.272496223449707 L 10.976912498474121 17.827760696411133 C 11.376952171325684 19.14166259765625 11.098723411560059 19.94171905517578 12.34632682800293 20.213154315948486 C 13.190445899963379 20.470504760742188 13.973719596862793 19.693645477294922 14.708028316497803 19.538573741912842 L 15.448529720306396 19.411288261413574 C 16.101545333862305 21.915234088897705 14.534229755401611 22.701902389526367 12.047927856445312 22.984522819519043 C 8.92307996749878 22.803324222564697 7.6921162605285645 20.500635623931885 7.7405877113342285 17.296653270721436 C 7.728255987167358 14.032196044921875 9.525399684906006 11.240406274795532 12.737544536590576 11.175740003585815 L 13.721137046813965 11.304996013641357 M 11.971571445465088 13.698343276977539 C 11.772505760192871 13.899104118347168 10.879485368728638 15.566209316253662 11.347153186798096 16.003937244415283 L 13.247962474822998 15.579684734344482 C 13.3802490234375 14.019930839538574 13.064366340637207 13.30266523361206 11.971571445465088 13.698343276977539 " fill="none" stroke="black" stroke-width="0.3"></path></svg>
