<svg xmlns="http://www.w3.org/2000/svg" xmlns:xlink="http://www.w3.org/1999/xlink" width="50px" height="50px" style="-ms-transform: rotate(360deg); -webkit-transform: rotate(360deg); transform: rotate(360deg);" preserveAspectRatio="xMidYMid meet" viewBox="0 0 24 24"><path d="M 14.141591548919678 5.136824011802673 C 15.0650954246521 5.279015064239502 15.824429512023926 5.293977856636047 15.765037536621094 6.079113721847534 L 15.50346851348877 8.055066347122192 C 14.962842464447021 8.330730199813843 15.289256572723389 7.829546928405762 13.863969326019287 8.019352197647095 C 13.62407398223877 8.430115699768066 13.299938678741455 8.82671856880188 13.337727069854736 10.200792789459229 L 13.252904891967773 11.236905813217163 L 14.991512775421143 11.51684832572937 L 14.841454982757568 13.992077350616455 L 13.331421375274658 13.88349723815918 L 13.088436126708984 22.683058261871338 L 9.438604831695557 22.68922519683838 C 9.5517897605896 20.021690368652344 9.826297760009766 13.805415630340576 9.771780967712402 14.125777244567871 L 8.489386081695557 14.065898895263672 L 8.818282842636108 11.520092010498047 L 10.017330408096313 11.385691165924072 C 9.960551261901855 8.993348121643066 10.87839388847351 5.112599730491638 10.426601886749268 7.2456464767456055 L 10.36126971244812 7.693210601806641 C 10.619463443756104 6.66919469833374 11.317261219024658 5.690492391586304 12.921064853668213 5.244600176811218 L 14.141591548919678 5.136824011802673 " fill="none" stroke="black" stroke-width="0.3"></path></svg>
