<svg xmlns="http://www.w3.org/2000/svg" xmlns:xlink="http://www.w3.org/1999/xlink" width="50px" height="50px" style="-ms-transform: rotate(360deg); -webkit-transform: rotate(360deg); transform: rotate(360deg);" preserveAspectRatio="xMidYMid meet" viewBox="0 0 24 24"><path d="M 11.558135032653809 5.847779273986816 C 12.892749309539795 5.608158588409424 13.84722375869751 6.375235319137573 13.95382833480835 7.721818685531616 C 13.846793174743652 8.973493337631226 12.80163288116455 10.028066396713257 11.968780517578125 9.793606996536255 C 11.080951452255249 9.796099662780762 9.906437158584595 8.71076488494873 10.029619932174683 7.762200593948364 C 9.865240573883057 6.943885087966919 10.849860191345215 5.796815872192383 11.558135032653809 5.847779273986816 M 10.043267726898193 11.52785325050354 L 13.65470266342163 11.283864498138428 L 13.105546474456787 23.462392330169678 C 13.1465163230896 25.933101654052734 10.418613195419312 28.08021640777588 8.330304622650146 28.479045867919922 C 7.625364303588867 28.44844150543213 6.835503816604614 28.418057441711426 6.822412490844727 28.032520294189453 C 6.811964750289917 27.72484016418457 7.174894094467163 27.25419044494629 7.510836124420166 26.26908302307129 C 7.884251117706299 26.07498550415039 8.054112911224365 24.608596801757812 8.24832558631897 24.587230682373047 C 8.5146803855896 24.55792808532715 8.72354006767273 24.787110328674316 8.993363857269287 24.963260650634766 C 9.304524421691895 24.931217193603516 9.622288942337036 22.735726833343506 9.59082555770874 22.89482831954956 C 9.550653219223022 22.33687448501587 9.93294095993042 15.277769565582275 10.043267726898193 11.52785325050354 " fill="none" stroke="black" stroke-width="0.3"></path></svg>
