<svg xmlns="http://www.w3.org/2000/svg" xmlns:xlink="http://www.w3.org/1999/xlink" width="50px" height="50px" style="-ms-transform: rotate(360deg); -webkit-transform: rotate(360deg); transform: rotate(360deg);" preserveAspectRatio="xMidYMid meet" viewBox="0 0 24 24"><path d="M 11.088545322418213 11.11863112449646 C 11.932113647460938 10.944469213485718 13.117205142974854 11.468622922897339 13.74924087524414 12.522368431091309 C 14.715133666992188 11.59903621673584 15.524714469909668 11.024202346801758 16.667537212371826 11.05227541923523 C 18.30802059173584 11.053167343139648 19.176594257354736 12.155269145965576 19.23983860015869 14.057430267333984 C 19.2564754486084 14.733591556549072 19.1473388671875 15.831474781036377 18.806684017181396 22.688262462615967 L 15.255510807037354 22.68861722946167 L 15.685405254364014 15.665061950683594 C 15.585817337036133 14.687493324279785 15.575620651245117 14.018274307250977 15.251616954803467 14.005924701690674 C 14.176457405090332 13.889355182647705 13.964233875274658 14.368834018707275 13.865966320037842 15.61994218826294 L 13.661989688873291 22.68818235397339 L 10.123375654220581 22.685949325561523 L 10.514177083969116 16.12428903579712 C 10.488473653793335 14.756515502929688 10.46510624885559 14.213915348052979 9.921272993087769 14.04263162612915 C 9.46644902229309 14.093994140625 8.59820294380188 14.017394542694092 8.659171342849731 15.612110137939453 L 8.227047443389893 22.690385341644287 L 4.813971161842346 22.687674522399902 C 5.00743567943573 18.900629997253418 5.238426446914673 15.776194095611572 5.322042346000671 11.455094575881958 L 8.512452363967896 11.42052412033081 L 8.459579229354858 12.53781795501709 C 9.869283199310303 11.338611602783203 10.595191240310669 11.106038331985474 11.088545322418213 11.11863112449646 " fill="none" stroke="black" stroke-width="0.3"></path></svg>
