<svg xmlns="http://www.w3.org/2000/svg" xmlns:xlink="http://www.w3.org/1999/xlink" width="50px" height="50px" style="-ms-transform: rotate(360deg); -webkit-transform: rotate(360deg); transform: rotate(360deg);" preserveAspectRatio="xMidYMid meet" viewBox="0 0 24 24"><path d="M 13.833975791931152 11.06168532371521 C 15.789506435394287 11.502421617507935 16.830814361572266 13.260927200317383 16.603722095489502 17.16701030731201 C 16.38721990585327 21.02651309967041 14.605565071105957 23.32250690460205 12.092830181121826 22.747193813323975 C 13.020368099212646 22.59786558151245 10.911531686782837 22.86622953414917 10.892078161239624 21.88771390914917 L 10.438801288604736 27.869842529296875 L 11.115748643875122 27.710108757019043 L 11.02777647972107 29.858356475830078 L 6.256713151931763 29.850053787231445 L 6.405153751373291 27.688101768493652 L 7.2097814083099365 27.6871919631958 L 7.719534873962402 15.84305477142334 L 7.70131516456604 14.035783767700195 L 7.701036214828491 11.4513680934906 L 10.908947467803955 11.454804182052612 L 10.732772827148438 13.086148738861084 C 10.906078577041626 11.542722702026367 12.844156265258789 10.964575052261353 13.833975791931152 11.06168532371521 M 12.528127670288086 14.030383586883545 C 11.036898851394653 13.755935668945312 11.119558811187744 14.54018783569336 11.032070875167847 17.215620517730713 L 11.221476316452026 21.757352828979492 C 10.923367738723755 20.459741592407227 11.309890508651733 21.03182315826416 10.539597272872925 19.57359552383423 C 11.450438261032104 20.076500415802002 12.573404788970947 20.811338424682617 13.007363319396973 18.320144176483154 C 13.406404495239258 16.451007843017578 13.07484483718872 14.13632869720459 12.528127670288086 14.030383586883545 " fill="none" stroke="black" stroke-width="0.3"></path></svg>
