<svg xmlns="http://www.w3.org/2000/svg" xmlns:xlink="http://www.w3.org/1999/xlink" width="50px" height="50px" style="-ms-transform: rotate(360deg); -webkit-transform: rotate(360deg); transform: rotate(360deg);" preserveAspectRatio="xMidYMid meet" viewBox="0 0 24 24"><path d="M 11.038408756256104 11.255940198898315 C 12.028261184692383 10.905590772628784 12.75779914855957 11.450672149658203 13.55588150024414 12.037572383880615 L 13.99010181427002 11.421476125717163 L 16.449169635772705 11.434261322021484 L 15.591638088226318 28.78029727935791 L 12.183061122894287 28.76623249053955 L 12.571925640106201 21.620956420898438 C 12.035764217376709 22.837512016296387 11.00827932357788 22.668743133544922 10.803774118423462 22.88734531402588 C 8.54423189163208 23.08862543106079 7.155480623245239 20.94196844100952 7.3636157512664795 17.16395616531372 C 7.5108489990234375 14.175205707550049 8.638634204864502 11.461637735366821 11.038408756256104 11.255940198898315 M 12.568189144134521 13.729755878448486 C 11.069029569625854 13.460552215576172 10.934697389602661 14.941876888275146 10.795530796051025 18.164066791534424 C 10.786482810974121 20.272461891174316 12.127638816833496 20.480295181274414 11.193653583526611 20.032394886016846 C 12.249202251434326 20.47163200378418 12.717710494995117 19.909343719482422 12.84384298324585 18.048092365264893 C 12.93608808517456 16.79475975036621 13.144384860992432 13.855118751525879 12.568189144134521 13.729755878448486 " fill="none" stroke="black" stroke-width="0.3"></path></svg>
