<svg xmlns="http://www.w3.org/2000/svg" xmlns:xlink="http://www.w3.org/1999/xlink" width="50px" height="50px" style="-ms-transform: rotate(360deg); -webkit-transform: rotate(360deg); transform: rotate(360deg);" preserveAspectRatio="xMidYMid meet" viewBox="0 0 24 24"><path d="M 7.935810327529907 11.233033418655396 L 11.593764781951904 11.344119787216187 L 11.349479913711548 11.333237171173096 C 10.581074237823486 11.3587167263031 10.868475437164307 11.102406978607178 11.036841630935669 11.89306640625 C 11.32421064376831 13.618693828582764 11.23064374923706 13.783694744110107 12.03779411315918 17.820266246795654 L 13.167150020599365 12.73892068862915 C 13.692147731781006 11.56662654876709 13.467005252838135 11.209824800491333 13.662181377410889 11.311963319778442 L 13.451195240020752 11.399169445037842 L 13.538522243499756 11.341233015060425 L 16.777524948120117 11.342991828918457 L 16.649309635162354 11.715396881103516 C 16.530850410461426 11.981961965560913 16.385297298431396 12.512542247772217 16.11731243133545 13.488694667816162 L 13.185665130615234 22.690369606018066 L 10.10442566871643 22.686065196990967 C 9.021681547164917 18.693883895874023 8.622987985610962 16.265214443206787 7.847800970077515 12.953164100646973 C 7.592838764190674 12.00944709777832 7.417676210403442 11.665250301361084 7.570655107498169 11.257092475891113 L 7.935810327529907 11.233033418655396 " fill="none" stroke="black" stroke-width="0.3"></path></svg>
