<svg xmlns="http://www.w3.org/2000/svg" xmlns:xlink="http://www.w3.org/1999/xlink" width="50px" height="50px" style="-ms-transform: rotate(360deg); -webkit-transform: rotate(360deg); transform: rotate(360deg);" preserveAspectRatio="xMidYMid meet" viewBox="0 0 24 24"><path d="M 7.231033086776733 11.335934400558472 L 10.752531051635742 11.348246097564697 L 11.33448600769043 14.09247350692749 L 12.077366352081299 17.55132007598877 C 12.08750295639038 17.97157859802246 12.260557651519775 19.057037830352783 12.365471363067627 19.189096927642822 C 11.357622385025024 19.103073120117188 11.53455662727356 18.46551275253296 12.07373571395874 17.523446559906006 L 13.173110961914062 12.893272876739502 L 13.651639938354492 11.32503604888916 L 16.832449436187744 11.251797437667847 L 15.208890438079834 16.244666576385498 C 14.382160663604736 18.756654739379883 13.080180644989014 22.459012985229492 12.873672008514404 23.215993881225586 C 12.68770694732666 23.709965229034424 11.703837633132935 25.390786170959473 11.90019965171814 26.10483741760254 C 11.389354705810547 26.198430061340332 11.68546986579895 26.5601863861084 12.061263084411621 26.127522468566895 L 12.23164415359497 27.88344097137451 L 8.653512239456177 28.558510780334473 C 8.352277278900146 28.562026977539062 9.301151275634766 26.22242832183838 8.02359652519226 23.970180988311768 C 9.048055171966553 24.52839946746826 9.52573299407959 23.73963689804077 9.950387477874756 23.00605344772339 C 10.33838152885437 21.563625812530518 9.429811477661133 20.30479860305786 9.628071784973145 20.246678352355957 C 9.284006595611572 19.490445613861084 8.441234350204468 15.618783473968506 8.292990446090698 15.120746612548828 C 8.146681308746338 14.676753044128418 7.763189077377319 13.24385118484497 7.8041839599609375 13.291953563690186 L 7.231033086776733 11.335934400558472 " fill="none" stroke="black" stroke-width="0.3"></path></svg>
